Montserrat-Thin.ufo
<glyph name="exclam" format="2">
  <advance width="242"/>
  <unicode hex="0021"/>
  <outline>
    <contour>
      <point x="114" y="188" type="line"/>
      <point x="128" y="188" type="line"/>
      <point x="132" y="700" type="line"/>
      <point x="110" y="700" type="line"/>
    </contour>
    <contour>
      <point x="121" y="-3" type="curve" smooth="yes"/>
      <point x="135" y="-3"/>
      <point x="147" y="9"/>
      <point x="147" y="23" type="curve" smooth="yes"/>
      <point x="147" y="37"/>
      <point x="135" y="49"/>
      <point x="121" y="49" type="curve" smooth="yes"/>
      <point x="107" y="49"/>
      <point x="95" y="37"/>
      <point x="95" y="23" type="curve" smooth="yes"/>
      <point x="95" y="9"/>
      <point x="107" y="-3"/>
    </contour>
  </outline>
</glyph>
<glyph name="numbersign" format="2">
  <advance width="682"/>
  <unicode hex="0023"/>
  <outline>
    <contour>
      <point x="418" y="0" type="line"/>
      <point x="438" y="0" type="line"/>
      <point x="524" y="700" type="line"/>
      <point x="504" y="700" type="line"/>
    </contour>
    <contour>
      <point x="35" y="210" type="line"/>
      <point x="615" y="210" type="line"/>
      <point x="615" y="229" type="line"/>
      <point x="35" y="229" type="line"/>
    </contour>
    <contour>
      <point x="158" y="0" type="line"/>
      <point x="178" y="0" type="line"/>
      <point x="264" y="700" type="line"/>
      <point x="244" y="700" type="line"/>
    </contour>
    <contour>
      <point x="66" y="471" type="line"/>
      <point x="646" y="471" type="line"/>
      <point x="646" y="490" type="line"/>
      <point x="66" y="490" type="line"/>
    </contour>
  </outline>
</glyph>
<glyph name="ampersand" format="2">
  <advance width="634"/>
  <unicode hex="0026"/>
  <outline>
    <contour>
      <point x="273" y="-3" type="curve" smooth="yes"/>
      <point x="430" y="-3"/>
      <point x="537" y="88"/>
      <point x="575" y="286" type="curve"/>
      <point x="558" y="290" type="line"/>
      <point x="522" y="102"/>
      <point x="422" y="14"/>
      <point x="273" y="14" type="curve" smooth="yes"/>
      <point x="157" y="14"/>
      <point x="76" y="75"/>
      <point x="76" y="168" type="curve" smooth="yes"/>
      <point x="76" y="241"/>
      <point x="117" y="293"/>
      <point x="260" y="379" type="curve" smooth="yes"/>
      <point x="398" y="462"/>
      <point x="441" y="508"/>
      <point x="441" y="578" type="curve" smooth="yes"/>
      <point x="441" y="656"/>
      <point x="386" y="703"/>
      <point x="300" y="703" type="curve" smooth="yes"/>
      <point x="207" y="703"/>
      <point x="149" y="649"/>
      <point x="149" y="568" type="curve" smooth="yes"/>
      <point x="149" y="515"/>
      <point x="166" y="477"/>
      <point x="237" y="400" type="curve" smooth="yes"/>
      <point x="612" y="-10" type="line"/>
      <point x="627" y="3" type="line"/>
      <point x="255" y="409" type="line" smooth="yes"/>
      <point x="186" y="485"/>
      <point x="169" y="520"/>
      <point x="169" y="568" type="curve" smooth="yes"/>
      <point x="169" y="637"/>
      <point x="217" y="684"/>
      <point x="300" y="684" type="curve" smooth="yes"/>
      <point x="378" y="684"/>
      <point x="422" y="642"/>
      <point x="422" y="578" type="curve" smooth="yes"/>
      <point x="422" y="512"/>
      <point x="380" y="472"/>
      <point x="247" y="393" type="curve" smooth="yes"/>
      <point x="103" y="307"/>
      <point x="56" y="245"/>
      <point x="56" y="168" type="curve" smooth="yes"/>
      <point x="56" y="65"/>
      <point x="146" y="-3"/>
    </contour>
  </outline>
</glyph>
<glyph name="parenleft" format="2">
  <advance width="311"/>
  <unicode hex="0028"/>
  <outline>
    <contour>
      <point x="234" y="-194" type="curve"/>
      <point x="253" y="-194" type="line"/>
      <point x="177" y="-66"/>
      <point x="143" y="89"/>
      <point x="143" y="274" type="curve" smooth="yes"/>
      <point x="143" y="459"/>
      <point x="177" y="614"/>
      <point x="253" y="742" type="curve"/>
      <point x="234" y="742" type="line"/>
      <point x="163" y="624"/>
      <point x="123" y="459"/>
      <point x="123" y="274" type="curve" smooth="yes"/>
      <point x="123" y="89"/>
      <point x="163" y="-73"/>
    </contour>
  </outline>
</glyph>
<glyph name="asterisk" format="2">
  <advance width="358"/>
  <unicode hex="002A"/>
  <outline>
    <contour>
      <point x="331" y="649" type="line"/>
      <point x="322" y="665" type="line"/>
      <point x="180" y="583" type="line"/>
      <point x="188" y="579" type="line"/>
      <point x="188" y="742" type="line"/>
      <point x="170" y="742" type="line"/>
      <point x="170" y="579" type="line"/>
      <point x="178" y="583" type="line"/>
      <point x="36" y="665" type="line"/>
      <point x="27" y="649" type="line"/>
      <point x="170" y="567" type="line"/>
      <point x="170" y="577" type="line"/>
      <point x="27" y="495" type="line"/>
      <point x="36" y="479" type="line"/>
      <point x="179" y="561" type="line"/>
      <point x="170" y="565" type="line"/>
      <point x="170" y="402" type="line"/>
      <point x="188" y="402" type="line"/>
      <point x="188" y="565" type="line"/>
      <point x="180" y="561" type="line"/>
      <point x="322" y="479" type="line"/>
      <point x="331" y="495" type="line"/>
      <point x="189" y="577" type="line"/>
      <point x="189" y="567" type="line"/>
    </contour>
  </outline>
</glyph>
<glyph name="hyphen" format="2">
  <advance width="380"/>
  <unicode hex="002D"/>
  <outline>
    <contour>
      <point x="65" y="255" type="line"/>
      <point x="315" y="255" type="line"/>
      <point x="315" y="274" type="line"/>
      <point x="65" y="274" type="line"/>
    </contour>
  </outline>
</glyph>
<glyph name="slash" format="2">
  <advance width="300"/>
  <unicode hex="002F"/>
  <outline>
    <contour>
      <point x="-20" y="-100" type="line"/>
      <point x="0" y="-100" type="line"/>
      <point x="330" y="842" type="line"/>
      <point x="310" y="842" type="line"/>
    </contour>
  </outline>
</glyph>
<glyph name="three" format="2">
  <advance width="548"/>
  <unicode hex="0033"/>
  <outline>
    <contour>
      <point x="259" y="-3" type="curve" smooth="yes"/>
      <point x="409" y="-3"/>
      <point x="490" y="76"/>
      <point x="490" y="192" type="curve" smooth="yes"/>
      <point x="490" y="308"/>
      <point x="410" y="387"/>
      <point x="245" y="387" type="curve" smooth="yes"/>
      <point x="230" y="387" type="line"/>
      <point x="232" y="380" type="line"/>
      <point x="464" y="685" type="line"/>
      <point x="464" y="700" type="line"/>
      <point x="41" y="700" type="line"/>
      <point x="41" y="681" type="line"/>
      <point x="444" y="681" type="line"/>
      <point x="442" y="688" type="line"/>
      <point x="210" y="383" type="line"/>
      <point x="210" y="368" type="line"/>
      <point x="246" y="368" type="line" smooth="yes"/>
      <point x="399" y="368"/>
      <point x="470" y="299"/>
      <point x="470" y="192" type="curve" smooth="yes"/>
      <point x="470" y="85"/>
      <point x="398" y="16"/>
      <point x="259" y="16" type="curve" smooth="yes"/>
      <point x="156" y="16"/>
      <point x="71" y="57"/>
      <point x="32" y="109" type="curve"/>
      <point x="19" y="96" type="line"/>
      <point x="61" y="38"/>
      <point x="154" y="-3"/>
    </contour>
  </outline>
</glyph>
<glyph name="five" format="2">
  <advance width="548"/>
  <unicode hex="0035"/>
  <outline>
    <contour>
      <point x="270" y="-3" type="curve" smooth="yes"/>
      <point x="425" y="-3"/>
      <point x="503" y="83"/>
      <point x="503" y="196" type="curve" smooth="yes"/>
      <point x="503" y="320"/>
      <point x="427" y="397"/>
      <point x="212" y="397" type="curve" smooth="yes"/>
      <point x="90" y="397" type="line"/>
      <point x="96" y="387" type="line"/>
      <point x="131" y="689" type="line"/>
      <point x="124" y="681" type="line"/>
      <point x="468" y="681" type="line"/>
      <point x="468" y="700" type="line"/>
      <point x="113" y="700" type="line"/>
      <point x="76" y="378" type="line"/>
      <point x="208" y="378" type="line" smooth="yes"/>
      <point x="416" y="378"/>
      <point x="483" y="310"/>
      <point x="483" y="196" type="curve" smooth="yes"/>
      <point x="483" y="92"/>
      <point x="414" y="16"/>
      <point x="270" y="16" type="curve" smooth="yes"/>
      <point x="169" y="16"/>
      <point x="84" y="57"/>
      <point x="45" y="109" type="curve"/>
      <point x="32" y="96" type="line"/>
      <point x="74" y="38"/>
      <point x="167" y="-3"/>
    </contour>
  </outline>
</glyph>
<glyph name="six" format="2">
  <advance width="592"/>
  <unicode hex="0036"/>
  <outline>
    <contour>
      <point x="332" y="-3" type="curve" smooth="yes"/>
      <point x="462" y="-3"/>
      <point x="555" y="78"/>
      <point x="555" y="202" type="curve" smooth="yes"/>
      <point x="555" y="326"/>
      <point x="465" y="406"/>
      <point x="325" y="406" type="curve" smooth="yes"/>
      <point x="196" y="406"/>
      <point x="94" y="327"/>
      <point x="90" y="195" type="curve"/>
      <point x="98" y="210" type="line"/>
      <point x="82" y="261"/>
      <point x="79" y="318"/>
      <point x="79" y="352" type="curve" smooth="yes"/>
      <point x="79" y="573"/>
      <point x="189" y="684"/>
      <point x="357" y="684" type="curve" smooth="yes"/>
      <point x="411" y="684"/>
      <point x="461" y="675"/>
      <point x="496" y="653" type="curve"/>
      <point x="506" y="670" type="line"/>
      <point x="465" y="695"/>
      <point x="413" y="703"/>
      <point x="357" y="703" type="curve" smooth="yes"/>
      <point x="179" y="703"/>
      <point x="59" y="585"/>
      <point x="59" y="350" type="curve" smooth="yes"/>
      <point x="59" y="133"/>
      <point x="150" y="-3"/>
    </contour>
    <contour>
      <point x="332" y="16" type="curve" smooth="yes"/>
      <point x="185" y="16"/>
      <point x="110" y="112"/>
      <point x="110" y="200" type="curve" smooth="yes"/>
      <point x="110" y="304"/>
      <point x="197" y="387"/>
      <point x="325" y="387" type="curve" smooth="yes"/>
      <point x="455" y="387"/>
      <point x="535" y="314"/>
      <point x="535" y="202" type="curve" smooth="yes"/>
      <point x="535" y="90"/>
      <point x="452" y="16"/>
    </contour>
  </outline>
</glyph>
<glyph name="greater" format="2">
  <advance width="560"/>
  <unicode hex="003E"/>
  <outline>
    <contour>
      <point x="75" y="168" type="line"/>
      <point x="485" y="339" type="line"/>
      <point x="485" y="361" type="line"/>
      <point x="75" y="532" type="line"/>
      <point x="75" y="510" type="line"/>
      <point x="472" y="346" type="line"/>
      <point x="472" y="354" type="line"/>
      <point x="75" y="190" type="line"/>
    </contour>
  </outline>
</glyph>
<glyph name="question" format="2">
  <advance width="554"/>
  <unicode hex="003F"/>
  <outline>
    <contour>
      <point x="250" y="188" type="curve"/>
      <point x="270" y="188" type="line"/>
      <point x="270" y="356"/>
      <point x="465" y="357"/>
      <point x="465" y="536" type="curve" smooth="yes"/>
      <point x="465" y="635"/>
      <point x="382" y="703"/>
      <point x="250" y="703" type="curve" smooth="yes"/>
      <point x="148" y="703"/>
      <point x="72" y="671"/>
      <point x="20" y="613" type="curve"/>
      <point x="34" y="599" type="line"/>
      <point x="85" y="656"/>
      <point x="154" y="684"/>
      <point x="250" y="684" type="curve" smooth="yes"/>
      <point x="377" y="684"/>
      <point x="445" y="621"/>
      <point x="445" y="535" type="curve" smooth="yes"/>
      <point x="445" y="368"/>
      <point x="250" y="370"/>
    </contour>
    <contour>
      <point x="260" y="-3" type="curve" smooth="yes"/>
      <point x="274" y="-3"/>
      <point x="286" y="9"/>
      <point x="286" y="23" type="curve" smooth="yes"/>
      <point x="286" y="37"/>
      <point x="274" y="49"/>
      <point x="260" y="49" type="curve" smooth="yes"/>
      <point x="246" y="49"/>
      <point x="234" y="37"/>
      <point x="234" y="23" type="curve" smooth="yes"/>
      <point x="234" y="9"/>
      <point x="246" y="-3"/>
    </contour>
  </outline>
</glyph>
<glyph name="at" format="2">
  <advance width="1032"/>
  <unicode hex="0040"/>
  <outline>
    <contour>
      <point x="513" y="-197" type="curve" smooth="yes"/>
      <point x="573" y="-197"/>
      <point x="651" y="-183"/>
      <point x="710" y="-151" type="curve"/>
      <point x="702" y="-133" type="line"/>
      <point x="647" y="-163"/>
      <point x="572" y="-177"/>
      <point x="513" y="-177" type="curve" smooth="yes"/>
      <point x="258" y="-177"/>
      <point x="79" y="0"/>
      <point x="79" y="254" type="curve" smooth="yes"/>
      <point x="79" y="511"/>
      <point x="260" y="684"/>
      <point x="517" y="684" type="curve" smooth="yes"/>
      <point x="772" y="684"/>
      <point x="953" y="515"/>
      <point x="953" y="259" type="curve" smooth="yes"/>
      <point x="953" y="103"/>
      <point x="902" y="16"/>
      <point x="834" y="16" type="curve" smooth="yes"/>
      <point x="793" y="16"/>
      <point x="762" y="39"/>
      <point x="762" y="99" type="curve" smooth="yes"/>
      <point x="762" y="517" type="line"/>
      <point x="742" y="517" type="line"/>
      <point x="742" y="330" type="line"/>
      <point x="752" y="260" type="line"/>
      <point x="742" y="190" type="line"/>
      <point x="742" y="89" type="line" smooth="yes"/>
      <point x="742" y="32"/>
      <point x="779" y="-3"/>
      <point x="834" y="-3" type="curve" smooth="yes"/>
      <point x="914" y="-3"/>
      <point x="973" y="90"/>
      <point x="973" y="259" type="curve" smooth="yes"/>
      <point x="973" y="526"/>
      <point x="782" y="703"/>
      <point x="517" y="703" type="curve" smooth="yes"/>
      <point x="250" y="703"/>
      <point x="59" y="523"/>
      <point x="59" y="254" type="curve" smooth="yes"/>
      <point x="59" y="-12"/>
      <point x="246" y="-197"/>
    </contour>
    <contour>
      <point x="511" y="-3" type="curve" smooth="yes"/>
      <point x="653" y="-3"/>
      <point x="759" y="106"/>
      <point x="759" y="259" type="curve" smooth="yes"/>
      <point x="759" y="412"/>
      <point x="653" y="520"/>
      <point x="511" y="520" type="curve" smooth="yes"/>
      <point x="369" y="520"/>
      <point x="260" y="412"/>
      <point x="260" y="259" type="curve" smooth="yes"/>
      <point x="260" y="106"/>
      <point x="369" y="-3"/>
    </contour>
    <contour>
      <point x="511" y="16" type="curve" smooth="yes"/>
      <point x="379" y="16"/>
      <point x="280" y="116"/>
      <point x="280" y="259" type="curve" smooth="yes"/>
      <point x="280" y="402"/>
      <point x="379" y="501"/>
      <point x="511" y="501" type="curve" smooth="yes"/>
      <point x="643" y="501"/>
      <point x="742" y="402"/>
      <point x="742" y="259" type="curve" smooth="yes"/>
      <point x="742" y="116"/>
      <point x="643" y="16"/>
    </contour>
  </outline>
</glyph>
<glyph name="A" format="2">
  <advance width="688"/>
  <unicode hex="0041"/>
  <anchor x="344" y="0" name="bottom"/>
  <anchor x="679" y="0" name="ogonek"/>
  <anchor x="344" y="700" name="top"/>
  <anchor x="106" y="700" name="topleft"/>
  <outline>
    <contour>
      <point x="9" y="0" type="line"/>
      <point x="32" y="0" type="line"/>
      <point x="349" y="684" type="line"/>
      <point x="339" y="684" type="line"/>
      <point x="656" y="0" type="line"/>
      <point x="679" y="0" type="line"/>
      <point x="354" y="700" type="line"/>
      <point x="334" y="700" type="line"/>
    </contour>
    <contour>
      <point x="116" y="211" type="line"/>
      <point x="571" y="211" type="line"/>
      <point x="561" y="230" type="line"/>
      <point x="126" y="230" type="line"/>
    </contour>
  </outline>
</glyph>
<glyph name="B" format="2">
  <advance width="748"/>
  <unicode hex="0042"/>
  <anchor x="377" y="0" name="bottom"/>
  <anchor x="377" y="700" name="top"/>
  <outline>
    <contour>
      <point x="133" y="0" type="line"/>
      <point x="430" y="0" type="line" smooth="yes"/>
      <point x="600" y="0"/>
      <point x="683" y="65"/>
      <point x="683" y="183" type="curve" smooth="yes"/>
      <point x="683" y="301"/>
      <point x="602" y="363"/>
      <point x="441" y="363" type="curve"/>
      <point x="424" y="350" type="line"/>
      <point x="554" y="350"/>
      <point x="645" y="406"/>
      <point x="645" y="523" type="curve" smooth="yes"/>
      <point x="645" y="640"/>
      <point x="554" y="700"/>
      <point x="410" y="700" type="curve" smooth="yes"/>
      <point x="133" y="700" type="line"/>
    </contour>
    <contour>
      <point x="153" y="19" type="line"/>
      <point x="153" y="681" type="line"/>
      <point x="414" y="681" type="line" smooth="yes"/>
      <point x="547" y="681"/>
      <point x="625" y="627"/>
      <point x="625" y="523" type="curve" smooth="yes"/>
      <point x="625" y="419"/>
      <point x="547" y="365"/>
      <point x="414" y="365" type="curve" smooth="yes"/>
      <point x="148" y="365" type="line"/>
      <point x="148" y="346" type="line"/>
      <point x="434" y="346" type="line" smooth="yes"/>
      <point x="583" y="346"/>
      <point x="663" y="296"/>
      <point x="663" y="183" type="curve" smooth="yes"/>
      <point x="663" y="70"/>
      <point x="583" y="19"/>
      <point x="434" y="19" type="curve" smooth="yes"/>
    </contour>
  </outline>
</glyph>
<glyph name="D" format="2">
  <advance width="826"/>
  <unicode hex="0044"/>
  <anchor x="396" y="0" name="bottom"/>
  <anchor x="200" y="356" name="center"/>
  <anchor x="391" y="699" name="top"/>
  <outline>
    <contour>
      <point x="133" y="0" type="line"/>
      <point x="398" y="0" type="line" smooth="yes"/>
      <point x="619" y="0"/>
      <point x="767" y="148"/>
      <point x="767" y="350" type="curve" smooth="yes"/>
      <point x="767" y="552"/>
      <point x="619" y="700"/>
      <point x="398" y="700" type="curve" smooth="yes"/>
      <point x="133" y="700" type="line"/>
    </contour>
    <contour>
      <point x="153" y="19" type="line"/>
      <point x="153" y="681" type="line"/>
      <point x="396" y="681" type="line" smooth="yes"/>
      <point x="610" y="681"/>
      <point x="747" y="541"/>
      <point x="747" y="350" type="curve" smooth="yes"/>
      <point x="747" y="159"/>
      <point x="610" y="19"/>
      <point x="396" y="19" type="curve" smooth="yes"/>
    </contour>
  </outline>
</glyph>
<glyph name="E" format="2">
  <advance width="668"/>
  <unicode hex="0045"/>
  <anchor x="376" y="0" name="bottom"/>
  <anchor x="599" y="0" name="ogonek"/>
  <anchor x="359" y="700" name="top"/>
  <anchor x="41" y="700" name="topleft"/>
  <outline>
    <contour>
      <point x="148" y="365" type="line"/>
      <point x="148" y="346" type="line"/>
      <point x="539" y="346" type="line"/>
      <point x="539" y="365" type="line"/>
    </contour>
    <contour>
      <point x="153" y="19" type="line"/>
      <point x="153" y="681" type="line"/>
      <point x="584" y="681" type="line"/>
      <point x="584" y="700" type="line"/>
      <point x="133" y="700" type="line"/>
      <point x="133" y="0" type="line"/>
      <point x="599" y="0" type="line"/>
      <point x="599" y="19" type="line"/>
    </contour>
  </outline>
</glyph>
<glyph name="G" format="2">
  <advance width="774"/>
  <unicode hex="0047"/>
  <guideline x="421" y="328" angle="90"/>
  <anchor x="402" y="0" name="bottom"/>
  <anchor x="402" y="699" name="top"/>
  <outline>
    <contour>
      <point x="421" y="-3" type="curve" smooth="yes"/>
      <point x="516" y="-3"/>
      <point x="602" y="27"/>
      <point x="662" y="87" type="curve"/>
      <point x="650" y="102" type="line"/>
      <point x="589" y="40"/>
      <point x="509" y="16"/>
      <point x="421" y="16" type="curve" smooth="yes"/>
      <point x="225" y="16"/>
      <point x="79" y="161"/>
      <point x="79" y="350" type="curve" smooth="yes"/>
      <point x="79" y="539"/>
      <point x="225" y="684"/>
      <point x="421" y="684" type="curve" smooth="yes"/>
      <point x="509" y="684"/>
      <point x="586" y="661"/>
      <point x="650" y="600" type="curve"/>
      <point x="662" y="614" type="line"/>
      <point x="602" y="674"/>
      <point x="516" y="703"/>
      <point x="421" y="703" type="curve" smooth="yes"/>
      <point x="213" y="703"/>
      <point x="59" y="552"/>
      <point x="59" y="350" type="curve" smooth="yes"/>
      <point x="59" y="148"/>
      <point x="213" y="-3"/>
    </contour>
    <contour>
      <point x="643" y="87" type="line"/>
      <point x="662" y="87" type="line"/>
      <point x="662" y="343" type="line"/>
      <point x="643" y="343" type="line"/>
    </contour>
  </outline>
</glyph>
<glyph name="K" format="2">
  <advance width="693"/>
  <unicode hex="004B"/>
  <anchor x="370" y="0" name="bottom"/>
  <anchor x="370" y="700" name="top"/>
  <outline>
    <contour>
      <point x="149" y="182" type="line"/>
      <point x="328" y="366" type="line"/>
      <point x="340" y="377" type="line"/>
      <point x="654" y="700" type="line"/>
      <point x="627" y="700" type="line"/>
      <point x="149" y="209" type="line"/>
    </contour>
    <contour>
      <point x="133" y="0" type="line"/>
      <point x="153" y="0" type="line"/>
      <point x="153" y="700" type="line"/>
      <point x="133" y="700" type="line"/>
    </contour>
    <contour>
      <point x="650" y="0" type="line"/>
      <point x="677" y="0" type="line"/>
      <point x="332" y="390" type="line"/>
      <point x="317" y="377" type="line"/>
    </contour>
  </outline>
</glyph>
<glyph name="M" format="2">
  <advance width="956"/>
  <unicode hex="004D"/>
  <anchor x="478" y="0" name="bottom"/>
  <anchor x="478" y="700" name="top"/>
  <outline>
    <contour>
      <point x="133" y="0" type="line"/>
      <point x="153" y="0" type="line"/>
      <point x="153" y="671" type="line"/>
      <point x="144" y="671" type="line"/>
      <point x="472" y="99" type="line"/>
      <point x="484" y="99" type="line"/>
      <point x="811" y="671" type="line"/>
      <point x="803" y="671" type="line"/>
      <point x="803" y="0" type="line"/>
      <point x="823" y="0" type="line"/>
      <point x="823" y="700" type="line"/>
      <point x="806" y="700" type="line"/>
      <point x="474" y="118" type="line"/>
      <point x="483" y="118" type="line"/>
      <point x="150" y="700" type="line"/>
      <point x="133" y="700" type="line"/>
    </contour>
  </outline>
</glyph>
<glyph name="R" format="2">
  <advance width="716"/>
  <unicode hex="0052"/>
  <anchor x="366" y="0" name="bottom"/>
  <anchor x="366" y="700" name="top"/>
  <outline>
    <contour>
      <point x="133" y="0" type="line"/>
      <point x="153" y="0" type="line"/>
      <point x="153" y="249" type="line"/>
      <point x="144" y="240" type="line"/>
      <point x="370" y="240" type="line" smooth="yes"/>
      <point x="542" y="240"/>
      <point x="645" y="325"/>
      <point x="645" y="470" type="curve" smooth="yes"/>
      <point x="645" y="615"/>
      <point x="542" y="700"/>
      <point x="370" y="700" type="curve" smooth="yes"/>
      <point x="133" y="700" type="line"/>
    </contour>
    <contour>
      <point x="630" y="0" type="line"/>
      <point x="655" y="0" type="line"/>
      <point x="472" y="254" type="line"/>
      <point x="447" y="254" type="line"/>
    </contour>
    <contour>
      <point x="153" y="251" type="line"/>
      <point x="153" y="689" type="line"/>
      <point x="144" y="681" type="line"/>
      <point x="372" y="681" type="line" smooth="yes"/>
      <point x="536" y="681"/>
      <point x="625" y="604"/>
      <point x="625" y="470" type="curve" smooth="yes"/>
      <point x="625" y="336"/>
      <point x="536" y="259"/>
      <point x="372" y="259" type="curve" smooth="yes"/>
      <point x="144" y="259" type="line"/>
    </contour>
  </outline>
</glyph>
<glyph name="U" format="2">
  <advance width="794"/>
  <unicode hex="0055"/>
  <anchor x="397" y="0" name="bottom"/>
  <anchor x="583" y="0" name="ogonek"/>
  <anchor x="397" y="700" name="top"/>
  <anchor x="672" y="700" name="topright"/>
  <outline>
    <contour>
      <point x="397" y="-3" type="curve" smooth="yes"/>
      <point x="564" y="-3"/>
      <point x="667" y="95"/>
      <point x="667" y="293" type="curve" smooth="yes"/>
      <point x="667" y="700" type="line"/>
      <point x="647" y="700" type="line"/>
      <point x="647" y="294" type="line" smooth="yes"/>
      <point x="647" y="107"/>
      <point x="556" y="16"/>
      <point x="397" y="16" type="curve" smooth="yes"/>
      <point x="238" y="16"/>
      <point x="147" y="107"/>
      <point x="147" y="294" type="curve" smooth="yes"/>
      <point x="147" y="700" type="line"/>
      <point x="127" y="700" type="line"/>
      <point x="127" y="293" type="line" smooth="yes"/>
      <point x="127" y="95"/>
      <point x="230" y="-3"/>
    </contour>
  </outline>
</glyph>
<glyph name="V" format="2">
  <advance width="670"/>
  <unicode hex="0056"/>
  <outline>
    <contour>
      <point x="325" y="0" type="line"/>
      <point x="345" y="0" type="line"/>
      <point x="660" y="700" type="line"/>
      <point x="637" y="700" type="line"/>
      <point x="330" y="16" type="line"/>
      <point x="340" y="16" type="line"/>
      <point x="33" y="700" type="line"/>
      <point x="10" y="700" type="line"/>
    </contour>
  </outline>
</glyph>
<glyph name="bracketleft" format="2">
  <advance width="288"/>
  <unicode hex="005B"/>
  <outline>
    <contour>
      <point x="133" y="-194" type="line"/>
      <point x="263" y="-194" type="line"/>
      <point x="263" y="-175" type="line"/>
      <point x="153" y="-175" type="line"/>
      <point x="153" y="723" type="line"/>
      <point x="263" y="723" type="line"/>
      <point x="263" y="742" type="line"/>
      <point x="133" y="742" type="line"/>
    </contour>
  </outline>
</glyph>
<glyph name="backslash" format="2">
  <advance width="300"/>
  <unicode hex="005C"/>
  <outline>
    <contour>
      <point x="320" y="-100" type="line"/>
      <point x="-10" y="842" type="line"/>
      <point x="-30" y="842" type="line"/>
      <point x="300" y="-100" type="line"/>
    </contour>
  </outline>
</glyph>
<glyph name="h" format="2">
  <advance width="668"/>
  <unicode hex="0068"/>
  <anchor x="335" y="0" name="bottom"/>
  <anchor x="189" y="630" name="center"/>
  <anchor x="125" y="742" name="top"/>
  <anchor x="228" y="517" name="topright"/>
  <outline>
    <contour>
      <point x="352" y="520" type="curve" smooth="yes"/>
      <point x="240" y="520"/>
      <point x="163" y="463"/>
      <point x="133" y="373" type="curve"/>
      <point x="135" y="370" type="line"/>
      <point x="135" y="742" type="line"/>
      <point x="115" y="742" type="line"/>
      <point x="115" y="0" type="line"/>
      <point x="135" y="0" type="line"/>
      <point x="135" y="281" type="line" smooth="yes"/>
      <point x="135" y="412"/>
      <point x="217" y="501"/>
      <point x="353" y="501" type="curve" smooth="yes"/>
      <point x="470" y="501"/>
      <point x="539" y="433"/>
      <point x="539" y="305" type="curve" smooth="yes"/>
      <point x="539" y="0" type="line"/>
      <point x="559" y="0" type="line"/>
      <point x="559" y="305" type="line" smooth="yes"/>
      <point x="559" y="445"/>
      <point x="479" y="520"/>
    </contour>
  </outline>
</glyph>
<glyph name="l" format="2">
  <advance width="250"/>
  <unicode hex="006C"/>
  <anchor x="125" y="0" name="bottom"/>
  <anchor x="125" y="350" name="center"/>
  <anchor x="251" y="350" name="dot"/>
  <anchor x="125" y="742" name="top"/>
  <anchor x="235" y="742" name="topright"/>
  <outline>
    <contour>
      <point x="115" y="0" type="line"/>
      <point x="135" y="0" type="line"/>
      <point x="135" y="742" type="line"/>
      <point x="115" y="742" type="line"/>
    </contour>
  </outline>
</glyph>
<glyph name="n" format="2">
  <advance width="668"/>
  <unicode hex="006E"/>
  <anchor x="335" y="0" name="bottom"/>
  <anchor x="335" y="517" name="top"/>
  <outline>
    <contour>
      <point x="352" y="520" type="curve" smooth="yes"/>
      <point x="240" y="520"/>
      <point x="163" y="463"/>
      <point x="133" y="373" type="curve"/>
      <point x="135" y="370" type="line"/>
      <point x="135" y="517" type="line"/>
      <point x="115" y="517" type="line"/>
      <point x="115" y="0" type="line"/>
      <point x="135" y="0" type="line"/>
      <point x="135" y="281" type="line" smooth="yes"/>
      <point x="135" y="412"/>
      <point x="217" y="501"/>
      <point x="353" y="501" type="curve" smooth="yes"/>
      <point x="470" y="501"/>
      <point x="539" y="433"/>
      <point x="539" y="305" type="curve" smooth="yes"/>
      <point x="539" y="0" type="line"/>
      <point x="559" y="0" type="line"/>
      <point x="559" y="305" type="line" smooth="yes"/>
      <point x="559" y="445"/>
      <point x="479" y="520"/>
    </contour>
  </outline>
</glyph>
<glyph name="q" format="2">
  <advance width="671"/>
  <unicode hex="0071"/>
  <anchor x="305" y="0" name="bottom"/>
  <anchor x="305" y="517" name="top"/>
  <outline>
    <contour>
      <point x="305" y="-3" type="curve" smooth="yes"/>
      <point x="447" y="-3"/>
      <point x="553" y="105"/>
      <point x="553" y="258" type="curve" smooth="yes"/>
      <point x="553" y="411"/>
      <point x="447" y="520"/>
      <point x="305" y="520" type="curve" smooth="yes"/>
      <point x="163" y="520"/>
      <point x="54" y="411"/>
      <point x="54" y="258" type="curve" smooth="yes"/>
      <point x="54" y="105"/>
      <point x="163" y="-3"/>
    </contour>
    <contour>
      <point x="305" y="16" type="curve" smooth="yes"/>
      <point x="173" y="16"/>
      <point x="74" y="115"/>
      <point x="74" y="258" type="curve" smooth="yes"/>
      <point x="74" y="401"/>
      <point x="173" y="501"/>
      <point x="305" y="501" type="curve" smooth="yes"/>
      <point x="437" y="501"/>
      <point x="536" y="401"/>
      <point x="536" y="258" type="curve" smooth="yes"/>
      <point x="536" y="115"/>
      <point x="437" y="16"/>
    </contour>
    <contour>
      <point x="536" y="-194" type="line"/>
      <point x="556" y="-194" type="line"/>
      <point x="556" y="517" type="line"/>
      <point x="536" y="517" type="line"/>
      <point x="536" y="327" type="line"/>
      <point x="546" y="257" type="line"/>
      <point x="536" y="187" type="line"/>
    </contour>
  </outline>
</glyph>
<glyph name="r" format="2">
  <advance width="383"/>
  <unicode hex="0072"/>
  <anchor x="125" y="0" name="bottom"/>
  <anchor x="227" y="517" name="top"/>
  <outline>
    <contour>
      <point x="115" y="0" type="line"/>
      <point x="135" y="0" type="line"/>
      <point x="135" y="278" type="line" smooth="yes"/>
      <point x="135" y="415"/>
      <point x="208" y="500"/>
      <point x="332" y="500" type="curve" smooth="yes"/>
      <point x="334" y="500"/>
      <point x="336" y="500"/>
      <point x="338" y="500" type="curve"/>
      <point x="338" y="520" type="line"/>
      <point x="232" y="520"/>
      <point x="161" y="468"/>
      <point x="133" y="377" type="curve"/>
      <point x="135" y="374" type="line"/>
      <point x="135" y="517" type="line"/>
      <point x="115" y="517" type="line"/>
    </contour>
  </outline>
</glyph>
<glyph name="u" format="2">
  <advance width="664"/>
  <unicode hex="0075"/>
  <anchor x="329" y="0" name="bottom"/>
  <anchor x="549" y="0" name="ogonek"/>
  <anchor x="329" y="517" name="top"/>
  <anchor x="540" y="517" name="topright"/>
  <outline>
    <contour>
      <point x="321" y="-3" type="curve" smooth="yes"/>
      <point x="428" y="-3"/>
      <point x="502" y="53"/>
      <point x="531" y="143" type="curve"/>
      <point x="529" y="146" type="line"/>
      <point x="529" y="0" type="line"/>
      <point x="549" y="0" type="line"/>
      <point x="549" y="517" type="line"/>
      <point x="529" y="517" type="line"/>
      <point x="529" y="236" type="line" smooth="yes"/>
      <point x="529" y="105"/>
      <point x="450" y="16"/>
      <point x="320" y="16" type="curve" smooth="yes"/>
      <point x="199" y="16"/>
      <point x="129" y="84"/>
      <point x="129" y="212" type="curve" smooth="yes"/>
      <point x="129" y="517" type="line"/>
      <point x="109" y="517" type="line"/>
      <point x="109" y="212" type="line" smooth="yes"/>
      <point x="109" y="72"/>
      <point x="190" y="-3"/>
    </contour>
  </outline>
</glyph>
<glyph name="v" format="2">
  <advance width="508"/>
  <unicode hex="0076"/>
  <anchor x="254" y="0" name="bottom"/>
  <anchor x="254" y="517" name="top"/>
  <outline>
    <contour>
      <point x="244" y="0" type="line"/>
      <point x="264" y="0" type="line"/>
      <point x="502" y="517" type="line"/>
      <point x="479" y="517" type="line"/>
      <point x="250" y="14" type="line"/>
      <point x="258" y="14" type="line"/>
      <point x="29" y="517" type="line"/>
      <point x="6" y="517" type="line"/>
    </contour>
  </outline>
</glyph>
<glyph name="exclamdown" format="2">
  <advance width="242"/>
  <unicode hex="00A1"/>
  <outline>
    <contour>
      <point x="128" y="329" type="line"/>
      <point x="114" y="329" type="line"/>
      <point x="110" y="-154" type="line"/>
      <point x="132" y="-154" type="line"/>
    </contour>
    <contour>
      <point x="121" y="520" type="curve" smooth="yes"/>
      <point x="107" y="520"/>
      <point x="95" y="508"/>
      <point x="95" y="494" type="curve" smooth="yes"/>
      <point x="95" y="480"/>
      <point x="107" y="468"/>
      <point x="121" y="468" type="curve" smooth="yes"/>
      <point x="135" y="468"/>
      <point x="147" y="480"/>
      <point x="147" y="494" type="curve" smooth="yes"/>
      <point x="147" y="508"/>
      <point x="135" y="520"/>
    </contour>
  </outline>
</glyph>
<glyph name="periodcentered" format="2">
  <advance width="222"/>
  <unicode hex="00B7"/>
  <outline>
    <contour>
      <point x="111" y="238" type="curve" smooth="yes"/>
      <point x="125" y="238"/>
      <point x="137" y="250"/>
      <point x="137" y="264" type="curve" smooth="yes"/>
      <point x="137" y="278"/>
      <point x="125" y="290"/>
      <point x="111" y="290" type="curve" smooth="yes"/>
      <point x="97" y="290"/>
      <point x="85" y="278"/>
      <point x="85" y="264" type="curve" smooth="yes"/>
      <point x="85" y="250"/>
      <point x="97" y="238"/>
    </contour>
  </outline>
</glyph>
<glyph name="AE" format="2">
  <advance width="1005"/>
  <unicode hex="00C6"/>
  <anchor x="480" y="0" name="bottom"/>
  <anchor x="480" y="700" name="top"/>
  <outline>
    <contour>
      <point x="9" y="0" type="line"/>
      <point x="32" y="0" type="line"/>
      <point x="467" y="685" type="line"/>
      <point x="453" y="681" type="line"/>
      <point x="475" y="681" type="line"/>
      <point x="475" y="700" type="line"/>
      <point x="454" y="700" type="line"/>
    </contour>
    <contour>
      <point x="153" y="211" type="line"/>
      <point x="475" y="211" type="line"/>
      <point x="475" y="230" type="line"/>
      <point x="163" y="230" type="line"/>
    </contour>
    <contour>
      <point x="485" y="365" type="line"/>
      <point x="485" y="346" type="line"/>
      <point x="876" y="346" type="line"/>
      <point x="876" y="365" type="line"/>
    </contour>
    <contour>
      <point x="490" y="19" type="line"/>
      <point x="490" y="681" type="line"/>
      <point x="921" y="681" type="line"/>
      <point x="921" y="700" type="line"/>
      <point x="470" y="700" type="line"/>
      <point x="470" y="0" type="line"/>
      <point x="936" y="0" type="line"/>
      <point x="936" y="19" type="line"/>
    </contour>
  </outline>
</glyph>
<glyph name="IJ" format="2">
  <advance width="714"/>
  <unicode hex="0132"/>
  <guideline x="117" y="186" angle="90"/>
  <anchor x="167" y="700" name="top"/>
  <outline>
    <contour>
      <point x="327" y="-3" type="curve" smooth="yes"/>
      <point x="484" y="-3"/>
      <point x="587" y="95"/>
      <point x="587" y="293" type="curve" smooth="yes"/>
      <point x="587" y="700" type="line"/>
      <point x="567" y="700" type="line"/>
      <point x="567" y="294" type="line" smooth="yes"/>
      <point x="567" y="107"/>
      <point x="476" y="16"/>
      <point x="328" y="16" type="curve" smooth="yes"/>
      <point x="253" y="16"/>
      <point x="185" y="39"/>
      <point x="132" y="78" type="curve"/>
      <point x="120" y="62" type="line"/>
      <point x="174" y="24"/>
      <point x="247" y="-3"/>
    </contour>
    <contour>
      <point x="127" y="290" type="line"/>
      <point x="147" y="290" type="line"/>
      <point x="147" y="700" type="line"/>
      <point x="127" y="700" type="line"/>
    </contour>
  </outline>
</glyph>
<glyph name="florin" format="2">
  <advance width="414"/>
  <unicode hex="0192"/>
  <outline>
    <contour>
      <point x="13" y="-197" type="curve" smooth="yes"/>
      <point x="92" y="-197"/>
      <point x="142" y="-146"/>
      <point x="151" y="-70" type="curve" smooth="yes"/>
      <point x="221" y="503" type="line"/>
      <point x="222" y="514" type="line"/>
      <point x="235" y="613" type="line" smooth="yes"/>
      <point x="245" y="686"/>
      <point x="284" y="726"/>
      <point x="354" y="726" type="curve" smooth="yes"/>
      <point x="387" y="726"/>
      <point x="417" y="715"/>
      <point x="436" y="694" type="curve"/>
      <point x="452" y="708" type="line"/>
      <point x="431" y="733"/>
      <point x="393" y="745"/>
      <point x="356" y="745" type="curve" smooth="yes"/>
      <point x="276" y="745"/>
      <point x="224" y="694"/>
      <point x="215" y="618" type="curve" smooth="yes"/>
      <point x="131" y="-65" type="line" smooth="yes"/>
      <point x="122" y="-138"/>
      <point x="81" y="-178"/>
      <point x="14" y="-178" type="curve" smooth="yes"/>
      <point x="-22" y="-178"/>
      <point x="-51" y="-167"/>
      <point x="-71" y="-146" type="curve"/>
      <point x="-86" y="-160" type="line"/>
      <point x="-65" y="-185"/>
      <point x="-27" y="-197"/>
    </contour>
    <contour>
      <point x="100" y="498" type="line"/>
      <point x="395" y="498" type="line"/>
      <point x="398" y="517" type="line"/>
      <point x="103" y="517" type="line"/>
    </contour>
  </outline>
</glyph>
<glyph name="Ohorn" format="2">
  <advance width="836"/>
  <unicode hex="01A0"/>
  <anchor x="418" y="0" name="bottom"/>
  <anchor x="418" y="700" name="top"/>
  <outline>
    <contour>
      <point x="418" y="-3" type="curve" smooth="yes"/>
      <point x="623" y="-3"/>
      <point x="777" y="148"/>
      <point x="777" y="350" type="curve" smooth="yes"/>
      <point x="777" y="501"/>
      <point x="688" y="631"/>
      <point x="548" y="680" type="curve"/>
      <point x="535" y="677" type="line"/>
      <point x="564" y="672"/>
      <point x="605" y="669"/>
      <point x="627" y="669" type="curve" smooth="yes"/>
      <point x="714" y="669"/>
      <point x="757" y="703"/>
      <point x="757" y="771" type="curve" smooth="yes"/>
      <point x="757" y="797"/>
      <point x="748" y="825"/>
      <point x="735" y="845" type="curve"/>
      <point x="717" y="837" type="line"/>
      <point x="728" y="818"/>
      <point x="737" y="796"/>
      <point x="737" y="770" type="curve" smooth="yes"/>
      <point x="737" y="715"/>
      <point x="701" y="688"/>
      <point x="627" y="688" type="curve" smooth="yes"/>
      <point x="561" y="688"/>
      <point x="504" y="703"/>
      <point x="418" y="703" type="curve" smooth="yes"/>
      <point x="213" y="703"/>
      <point x="59" y="552"/>
      <point x="59" y="350" type="curve" smooth="yes"/>
      <point x="59" y="148"/>
      <point x="213" y="-3"/>
    </contour>
    <contour>
      <point x="418" y="16" type="curve" smooth="yes"/>
      <point x="225" y="16"/>
      <point x="79" y="161"/>
      <point x="79" y="350" type="curve" smooth="yes"/>
      <point x="79" y="539"/>
      <point x="225" y="684"/>
      <point x="418" y="684" type="curve" smooth="yes"/>
      <point x="611" y="684"/>
      <point x="757" y="539"/>
      <point x="757" y="350" type="curve" smooth="yes"/>
      <point x="757" y="161"/>
      <point x="611" y="16"/>
    </contour>
  </outline>
</glyph>
<glyph name="Gstroke" format="2">
  <advance width="804"/>
  <unicode hex="01E4"/>
  <guideline x="431" y="328" angle="90"/>
  <outline>
    <contour>
      <point x="420" y="224" type="line"/>
      <point x="780" y="224" type="line"/>
      <point x="780" y="243" type="line"/>
      <point x="420" y="243" type="line"/>
    </contour>
    <component base="G"/>
  </outline>
</glyph>
<glyph name="jdotless" format="2">
  <advance width="255"/>
  <unicode hex="0237"/>
  <anchor x="130" y="517" name="top"/>
  <outline>
    <contour>
      <point x="18" y="-197" type="curve" smooth="yes"/>
      <point x="97" y="-197"/>
      <point x="140" y="-146"/>
      <point x="140" y="-70" type="curve" smooth="yes"/>
      <point x="140" y="517" type="line"/>
      <point x="120" y="517" type="line"/>
      <point x="120" y="-65" type="line" smooth="yes"/>
      <point x="120" y="-138"/>
      <point x="84" y="-178"/>
      <point x="17" y="-178" type="curve" smooth="yes"/>
      <point x="-19" y="-178"/>
      <point x="-50" y="-167"/>
      <point x="-72" y="-146" type="curve"/>
      <point x="-86" y="-160" type="line"/>
      <point x="-62" y="-185"/>
      <point x="-22" y="-197"/>
    </contour>
  </outline>
</glyph>
<glyph name="schwa" format="2">
  <advance width="587"/>
  <unicode hex="0259"/>
  <anchor x="293" y="0" name="bottom"/>
  <anchor x="94" y="517" name="ogonek"/>
  <anchor x="293" y="517" name="top"/>
  <outline>
    <contour>
      <point x="275" y="520" type="curve" smooth="yes"/>
      <point x="201" y="520"/>
      <point x="131" y="491"/>
      <point x="85" y="435" type="curve"/>
      <point x="99" y="421" type="line"/>
      <point x="140" y="475"/>
      <point x="206" y="501"/>
      <point x="275" y="501" type="curve" smooth="yes"/>
      <point x="412" y="501"/>
      <point x="514" y="401"/>
      <point x="514" y="258" type="curve" smooth="yes"/>
      <point x="514" y="254" type="line" smooth="yes"/>
      <point x="514" y="118"/>
      <point x="421" y="16"/>
      <point x="294" y="16" type="curve" smooth="yes"/>
      <point x="167" y="16"/>
      <point x="73" y="118"/>
      <point x="73" y="254" type="curve"/>
      <point x="65" y="239" type="line"/>
      <point x="522" y="239" type="line"/>
      <point x="522" y="258" type="line"/>
      <point x="54" y="258" type="line"/>
      <point x="54" y="256"/>
      <point x="54" y="255"/>
      <point x="54" y="253" type="curve" smooth="yes"/>
      <point x="54" y="103"/>
      <point x="158" y="-3"/>
      <point x="294" y="-3" type="curve" smooth="yes"/>
      <point x="431" y="-3"/>
      <point x="533" y="105"/>
      <point x="533" y="258" type="curve" smooth="yes"/>
      <point x="533" y="411"/>
      <point x="424" y="520"/>
    </contour>
  </outline>
</glyph>
<glyph name="primemod" format="2">
  <advance width="184"/>
  <unicode hex="02B9"/>
  <outline>
    <contour>
      <point x="83" y="450" type="line"/>
      <point x="101" y="450" type="line"/>
      <point x="103" y="700" type="line"/>
      <point x="81" y="700" type="line"/>
    </contour>
  </outline>
</glyph>
<glyph name="firsttonechinese" format="2">
  <advance width="600"/>
  <unicode hex="02C9"/>
  <outline>
    <contour>
      <point x="164" y="652" type="line"/>
      <point x="436" y="652" type="line"/>
      <point x="436" y="672" type="line"/>
      <point x="164" y="672" type="line"/>
    </contour>
  </outline>
</glyph>
<glyph name="secondtonechinese" format="2">
  <advance width="600"/>
  <unicode hex="02CA"/>
  <outline>
    <contour>
      <point x="255" y="607" type="line"/>
      <point x="285" y="607" type="line"/>
      <point x="435" y="717" type="line"/>
      <point x="395" y="717" type="line"/>
    </contour>
  </outline>
</glyph>
<glyph name="verticallinelowmod" format="2">
  <advance width="154"/>
  <unicode hex="02CC"/>
  <outline>
    <contour>
      <point x="67" y="-210" type="line"/>
      <point x="87" y="-210" type="line"/>
      <point x="87" y="-30" type="line"/>
      <point x="67" y="-30" type="line"/>
    </contour>
  </outline>
</glyph>
<glyph name="circumflexcomb" format="2">
  <unicode hex="0302"/>
  <anchor x="300" y="517" name="_top"/>
  <anchor x="300" y="650" name="top"/>
  <outline>
    <contour>
      <point x="162" y="607" type="line"/>
      <point x="189" y="607" type="line"/>
      <point x="303" y="703" type="line"/>
      <point x="297" y="703" type="line"/>
      <point x="411" y="607" type="line"/>
      <point x="438" y="607" type="line"/>
      <point x="316" y="717" type="line"/>
      <point x="284" y="717" type="line"/>
    </contour>
  </outline>
</glyph>
<glyph name="hookabovecomb" format="2">
  <unicode hex="0309"/>
  <anchor x="300" y="517" name="_top"/>
  <anchor x="300" y="730" name="top"/>
  <outline>
    <contour>
      <point x="302" y="603" type="line"/>
      <point x="352" y="627"/>
      <point x="375" y="657"/>
      <point x="375" y="697" type="curve" smooth="yes"/>
      <point x="375" y="741"/>
      <point x="344" y="769"/>
      <point x="296" y="769" type="curve" smooth="yes"/>
      <point x="273" y="769"/>
      <point x="245" y="761"/>
      <point x="227" y="748" type="curve"/>
      <point x="235" y="731" type="line"/>
      <point x="255" y="744"/>
      <point x="274" y="750"/>
      <point x="297" y="750" type="curve" smooth="yes"/>
      <point x="331" y="750"/>
      <point x="355" y="727"/>
      <point x="355" y="696" type="curve" smooth="yes"/>
      <point x="355" y="662"/>
      <point x="333" y="637"/>
      <point x="292" y="619" type="curve"/>
    </contour>
  </outline>
</glyph>
<glyph name="dblgravecomb" format="2">
  <unicode hex="030F"/>
  <anchor x="300" y="517" name="_top"/>
  <anchor x="300" y="660" name="top"/>
  <outline>
    <contour>
      <point x="356" y="607" type="line"/>
      <point x="383" y="607" type="line"/>
      <point x="272" y="717" type="line"/>
      <point x="238" y="717" type="line"/>
    </contour>
    <contour>
      <point x="217" y="607" type="line"/>
      <point x="244" y="607" type="line"/>
      <point x="133" y="717" type="line"/>
      <point x="99" y="717" type="line"/>
    </contour>
  </outline>
</glyph>
<glyph name="Omega" format="2">
  <advance width="910"/>
  <unicode hex="03A9"/>
  <outline>
    <contour>
      <point x="10" y="0" type="line"/>
      <point x="330" y="0" type="line"/>
      <point x="330" y="19" type="line"/>
      <point x="189" y="92"/>
      <point x="116" y="215"/>
      <point x="116" y="350" type="curve" smooth="yes"/>
      <point x="116" y="541"/>
      <point x="262" y="684"/>
      <point x="455" y="684" type="curve" smooth="yes"/>
      <point x="648" y="684"/>
      <point x="794" y="541"/>
      <point x="794" y="350" type="curve" smooth="yes"/>
      <point x="794" y="215"/>
      <point x="721" y="92"/>
      <point x="580" y="19" type="curve"/>
      <point x="580" y="0" type="line"/>
      <point x="900" y="0" type="line"/>
      <point x="900" y="20" type="line"/>
      <point x="621" y="20" type="line"/>
      <point x="750" y="95"/>
      <point x="814" y="221"/>
      <point x="814" y="350" type="curve" smooth="yes"/>
      <point x="814" y="552"/>
      <point x="660" y="703"/>
      <point x="455" y="703" type="curve" smooth="yes"/>
      <point x="250" y="703"/>
      <point x="96" y="552"/>
      <point x="96" y="350" type="curve" smooth="yes"/>
      <point x="96" y="221"/>
      <point x="160" y="95"/>
      <point x="289" y="20" type="curve"/>
      <point x="10" y="20" type="line"/>
    </contour>
  </outline>
</glyph>
<glyph name="Tshe-cy" format="2">
  <advance width="823"/>
  <unicode hex="040B"/>
  <outline>
    <contour>
      <point x="268" y="0" type="line"/>
      <point x="288" y="0" type="line"/>
      <point x="288" y="690" type="line"/>
      <point x="279" y="681" type="line"/>
      <point x="563" y="681" type="line"/>
      <point x="563" y="700" type="line"/>
      <point x="8" y="700" type="line"/>
      <point x="8" y="681" type="line"/>
      <point x="277" y="681" type="line"/>
      <point x="268" y="690" type="line"/>
    </contour>
    <contour>
      <point x="277" y="352" type="curve"/>
      <point x="275" y="331" type="line"/>
      <point x="371" y="376"/>
      <point x="452" y="397"/>
      <point x="526" y="397" type="curve" smooth="yes"/>
      <point x="658" y="397"/>
      <point x="738" y="330"/>
      <point x="738" y="209" type="curve" smooth="yes"/>
      <point x="738" y="0" type="line"/>
      <point x="758" y="0" type="line"/>
      <point x="758" y="209" type="line" smooth="yes"/>
      <point x="758" y="346"/>
      <point x="665" y="416"/>
      <point x="526" y="416" type="curve" smooth="yes"/>
      <point x="449" y="416"/>
      <point x="369" y="395"/>
    </contour>
  </outline>
</glyph>
<glyph name="Zhe-cy" format="2">
  <advance width="974"/>
  <unicode hex="0416"/>
  <guideline x="507" y="182" angle="0"/>
  <guideline x="7" y="179" angle="90"/>
  <guideline x="995" y="179" angle="90"/>
  <anchor x="917" y="0" name="bottomleft"/>
  <anchor x="965" y="0" name="bottomright"/>
  <anchor x="488" y="700" name="top"/>
  <outline>
    <contour>
      <point x="917" y="0" type="line"/>
      <point x="942" y="0" type="line"/>
      <point x="674" y="365" type="line"/>
      <point x="656" y="357" type="line"/>
    </contour>
    <contour>
      <point x="489" y="347" type="line"/>
      <point x="678" y="347" type="line"/>
      <point x="678" y="366" type="line"/>
      <point x="489" y="366" type="line"/>
    </contour>
    <contour>
      <point x="674" y="349" type="line"/>
      <point x="921" y="700" type="line"/>
      <point x="896" y="700" type="line"/>
      <point x="656" y="357" type="line"/>
    </contour>
    <contour>
      <point x="57" y="0" type="line"/>
      <point x="318" y="357" type="line"/>
      <point x="300" y="365" type="line"/>
      <point x="32" y="0" type="line"/>
    </contour>
    <contour>
      <point x="497" y="0" type="line"/>
      <point x="497" y="700" type="line"/>
      <point x="477" y="700" type="line"/>
      <point x="477" y="0" type="line"/>
    </contour>
    <contour>
      <point x="485" y="347" type="line"/>
      <point x="485" y="366" type="line"/>
      <point x="296" y="366" type="line"/>
      <point x="296" y="347" type="line"/>
    </contour>
    <contour>
      <point x="300" y="349" type="line"/>
      <point x="318" y="357" type="line"/>
      <point x="78" y="700" type="line"/>
      <point x="53" y="700" type="line"/>
    </contour>
  </outline>
</glyph>
<glyph name="Te-cy" format="2">
  <advance width="556"/>
  <unicode hex="0422"/>
  <anchor x="278" y="0" name="bottom"/>
  <anchor x="268" y="0" name="bottomleft"/>
  <anchor x="278" y="356" name="center"/>
  <anchor x="278" y="700" name="top"/>
  <outline>
    <contour>
      <point x="268" y="0" type="line"/>
      <point x="288" y="0" type="line"/>
      <point x="288" y="690" type="line"/>
      <point x="279" y="681" type="line"/>
      <point x="548" y="681" type="line"/>
      <point x="548" y="700" type="line"/>
      <point x="8" y="700" type="line"/>
      <point x="8" y="681" type="line"/>
      <point x="277" y="681" type="line"/>
      <point x="268" y="690" type="line"/>
    </contour>
  </outline>
</glyph>
<glyph name="Ha-cy" format="2">
  <advance width="613"/>
  <unicode hex="0425"/>
  <anchor x="556" y="0" name="bottomleft"/>
  <outline>
    <contour>
      <point x="52" y="700" type="line"/>
      <point x="294" y="363" type="line"/>
      <point x="33" y="0" type="line"/>
      <point x="57" y="0" type="line"/>
      <point x="306" y="347" type="line"/>
      <point x="556" y="0" type="line"/>
      <point x="580" y="0" type="line"/>
      <point x="318" y="363" type="line"/>
      <point x="561" y="700" type="line"/>
      <point x="537" y="700" type="line"/>
      <point x="306" y="380" type="line"/>
      <point x="76" y="700" type="line"/>
    </contour>
  </outline>
</glyph>
<glyph name="Hardsign-cy" format="2">
  <advance width="805"/>
  <unicode hex="042A"/>
  <outline>
    <contour>
      <point x="503" y="436" type="curve" smooth="yes"/>
      <point x="258" y="436" type="line"/>
      <point x="258" y="700" type="line"/>
      <point x="8" y="700" type="line"/>
      <point x="8" y="681" type="line"/>
      <point x="238" y="681" type="line"/>
      <point x="238" y="0" type="line"/>
      <point x="492" y="0" type="line" smooth="yes"/>
      <point x="662" y="0"/>
      <point x="752" y="76"/>
      <point x="752" y="221" type="curve" smooth="yes"/>
      <point x="752" y="362"/>
      <point x="666" y="436"/>
    </contour>
    <contour>
      <point x="496" y="19" type="curve" smooth="yes"/>
      <point x="258" y="19" type="line"/>
      <point x="258" y="417" type="line"/>
      <point x="496" y="417" type="line" smooth="yes"/>
      <point x="654" y="417"/>
      <point x="732" y="352"/>
      <point x="732" y="220" type="curve" smooth="yes"/>
      <point x="732" y="87"/>
      <point x="652" y="19"/>
    </contour>
  </outline>
</glyph>
<glyph name="Iu-cy" format="2">
  <advance width="1080"/>
  <unicode hex="042E"/>
  <outline>
    <contour>
      <point x="137" y="0" type="line"/>
      <point x="157" y="0" type="line"/>
      <point x="157" y="346" type="line"/>
      <point x="337" y="346" type="line"/>
      <point x="337" y="365" type="line"/>
      <point x="157" y="365" type="line"/>
      <point x="157" y="700" type="line"/>
      <point x="137" y="700" type="line"/>
    </contour>
    <contour>
      <point x="670" y="-3" type="curve" smooth="yes"/>
      <point x="863" y="-3"/>
      <point x="1008" y="148"/>
      <point x="1008" y="350" type="curve" smooth="yes"/>
      <point x="1008" y="552"/>
      <point x="863" y="703"/>
      <point x="670" y="703" type="curve" smooth="yes"/>
      <point x="478" y="703"/>
      <point x="333" y="552"/>
      <point x="333" y="350" type="curve" smooth="yes"/>
      <point x="333" y="148"/>
      <point x="478" y="-3"/>
    </contour>
    <contour>
      <point x="670" y="16" type="curve" smooth="yes"/>
      <point x="490" y="16"/>
      <point x="353" y="159"/>
      <point x="353" y="350" type="curve" smooth="yes"/>
      <point x="353" y="541"/>
      <point x="490" y="684"/>
      <point x="670" y="684" type="curve" smooth="yes"/>
      <point x="851" y="684"/>
      <point x="988" y="541"/>
      <point x="988" y="350" type="curve" smooth="yes"/>
      <point x="988" y="159"/>
      <point x="851" y="16"/>
    </contour>
  </outline>
</glyph>
<glyph name="ve-cy" format="2">
  <advance width="594"/>
  <unicode hex="0432"/>
  <anchor x="298" y="0" name="bottom"/>
  <anchor x="298" y="517" name="top"/>
  <outline>
    <contour>
      <point x="117" y="0" type="line"/>
      <point x="324" y="0" type="line" smooth="yes"/>
      <point x="454" y="0"/>
      <point x="516" y="48"/>
      <point x="516" y="136" type="curve" smooth="yes"/>
      <point x="516" y="223"/>
      <point x="464" y="268"/>
      <point x="343" y="268" type="curve"/>
      <point x="330" y="259" type="line"/>
      <point x="429" y="259"/>
      <point x="497" y="300"/>
      <point x="497" y="386" type="curve" smooth="yes"/>
      <point x="497" y="472"/>
      <point x="429" y="517"/>
      <point x="320" y="517" type="curve" smooth="yes"/>
      <point x="117" y="517" type="line"/>
    </contour>
    <contour>
      <point x="137" y="19" type="line"/>
      <point x="137" y="253" type="line"/>
      <point x="337" y="253" type="line" smooth="yes"/>
      <point x="447" y="253"/>
      <point x="496" y="217"/>
      <point x="496" y="136" type="curve" smooth="yes"/>
      <point x="496" y="55"/>
      <point x="437" y="19"/>
      <point x="327" y="19" type="curve" smooth="yes"/>
    </contour>
    <contour>
      <point x="137" y="272" type="line"/>
      <point x="137" y="498" type="line"/>
      <point x="321" y="498" type="line" smooth="yes"/>
      <point x="420" y="498"/>
      <point x="477" y="460"/>
      <point x="477" y="385" type="curve" smooth="yes"/>
      <point x="477" y="310"/>
      <point x="420" y="272"/>
      <point x="321" y="272" type="curve" smooth="yes"/>
    </contour>
  </outline>
</glyph>
<glyph name="ge-cy" format="2">
  <advance width="449"/>
  <unicode hex="0433"/>
  <anchor x="117" y="0" name="_bottomleft"/>
  <anchor x="117" y="0" name="bottomleft"/>
  <anchor x="373" y="0" name="bottomright"/>
  <anchor x="289" y="517" name="top"/>
  <outline>
    <contour>
      <point x="117" y="0" type="line"/>
      <point x="137" y="0" type="line"/>
      <point x="137" y="506" type="line"/>
      <point x="129" y="498" type="line"/>
      <point x="453" y="498" type="line"/>
      <point x="453" y="517" type="line"/>
      <point x="117" y="517" type="line"/>
    </contour>
  </outline>
</glyph>
<glyph name="de-cy" format="2">
  <advance width="623"/>
  <unicode hex="0434"/>
  <outline>
    <contour>
      <point x="472" y="10" type="line"/>
      <point x="492" y="10" type="line"/>
      <point x="492" y="517" type="line"/>
      <point x="154" y="517" type="line"/>
      <point x="146" y="349" type="line" smooth="yes"/>
      <point x="138" y="183"/>
      <point x="124" y="12"/>
      <point x="35" y="18" type="curve"/>
      <point x="56" y="10" type="line"/>
      <point x="142" y="14"/>
      <point x="159" y="191"/>
      <point x="166" y="349" type="curve" smooth="yes"/>
      <point x="173" y="498" type="line"/>
      <point x="472" y="498" type="line"/>
    </contour>
    <contour>
      <point x="11" y="-134" type="line"/>
      <point x="31" y="-134" type="line"/>
      <point x="31" y="0" type="line"/>
      <point x="558" y="0" type="line"/>
      <point x="558" y="-134" type="line"/>
      <point x="578" y="-134" type="line"/>
      <point x="578" y="18" type="line"/>
      <point x="11" y="18" type="line"/>
    </contour>
  </outline>
</glyph>
<glyph name="zhe-cy" format="2">
  <advance width="779"/>
  <unicode hex="0436"/>
  <guideline x="588" y="182" angle="0"/>
  <guideline x="88" y="179" angle="90"/>
  <guideline x="1076" y="179" angle="90"/>
  <anchor x="727" y="0" name="bottomleft"/>
  <anchor x="763" y="0" name="bottomright"/>
  <anchor x="389" y="517" name="top"/>
  <outline>
    <contour>
      <point x="727" y="0" type="line"/>
      <point x="752" y="0" type="line"/>
      <point x="544" y="271" type="line"/>
      <point x="526" y="263" type="line"/>
    </contour>
    <contour>
      <point x="391" y="254" type="line"/>
      <point x="546" y="254" type="line"/>
      <point x="546" y="272" type="line"/>
      <point x="391" y="272" type="line"/>
    </contour>
    <contour>
      <point x="545" y="257" type="line"/>
      <point x="736" y="517" type="line"/>
      <point x="712" y="517" type="line"/>
      <point x="526" y="263" type="line"/>
    </contour>
    <contour>
      <point x="52" y="0" type="line"/>
      <point x="253" y="263" type="line"/>
      <point x="235" y="271" type="line"/>
      <point x="27" y="0" type="line"/>
    </contour>
    <contour>
      <point x="399" y="0" type="line"/>
      <point x="399" y="517" type="line"/>
      <point x="379" y="517" type="line"/>
      <point x="379" y="0" type="line"/>
    </contour>
    <contour>
      <point x="386" y="254" type="line"/>
      <point x="386" y="272" type="line"/>
      <point x="233" y="272" type="line"/>
      <point x="233" y="254" type="line"/>
    </contour>
    <contour>
      <point x="235" y="257" type="line"/>
      <point x="253" y="263" type="line"/>
      <point x="67" y="517" type="line"/>
      <point x="43" y="517" type="line"/>
    </contour>
  </outline>
</glyph>
<glyph name="ze-cy" format="2">
  <advance width="514"/>
  <unicode hex="0437"/>
  <anchor x="233" y="0" name="bottom"/>
  <anchor x="241" y="517" name="top"/>
  <outline>
    <contour>
      <point x="230" y="-3" type="curve" smooth="yes"/>
      <point x="162" y="-3"/>
      <point x="86" y="19"/>
      <point x="33" y="71" type="curve"/>
      <point x="46" y="84" type="line"/>
      <point x="95" y="35"/>
      <point x="168" y="14"/>
      <point x="235" y="15" type="curve" smooth="yes"/>
      <point x="343" y="17"/>
      <point x="419" y="74"/>
      <point x="419" y="147" type="curve" smooth="yes"/>
      <point x="419" y="218"/>
      <point x="349" y="260"/>
      <point x="241" y="260" type="curve" smooth="yes"/>
      <point x="165" y="260" type="line"/>
      <point x="165" y="279" type="line"/>
      <point x="242" y="279" type="line" smooth="yes"/>
      <point x="332" y="279"/>
      <point x="404" y="318"/>
      <point x="404" y="387" type="curve" smooth="yes"/>
      <point x="404" y="463"/>
      <point x="320" y="503"/>
      <point x="226" y="501" type="curve" smooth="yes"/>
      <point x="174" y="500"/>
      <point x="117" y="485"/>
      <point x="67" y="454" type="curve"/>
      <point x="58" y="471" type="line"/>
      <point x="112" y="504"/>
      <point x="172" y="520"/>
      <point x="232" y="520" type="curve" smooth="yes"/>
      <point x="334" y="520"/>
      <point x="424" y="473"/>
      <point x="424" y="389" type="curve" smooth="yes"/>
      <point x="424" y="310"/>
      <point x="345" y="264"/>
      <point x="247" y="264" type="curve"/>
      <point x="250" y="275" type="line"/>
      <point x="371" y="275"/>
      <point x="439" y="224"/>
      <point x="439" y="147" type="curve" smooth="yes"/>
      <point x="439" y="53"/>
      <point x="339" y="-3"/>
    </contour>
  </outline>
</glyph>
<glyph name="em-cy" format="2">
  <advance width="775"/>
  <unicode hex="043C"/>
  <anchor x="388" y="0" name="bottom"/>
  <anchor x="639" y="0" name="bottomleft"/>
  <anchor x="388" y="517" name="top"/>
  <outline>
    <contour>
      <point x="117" y="0" type="line"/>
      <point x="137" y="0" type="line"/>
      <point x="137" y="488" type="line"/>
      <point x="129" y="488" type="line"/>
      <point x="382" y="72" type="line"/>
      <point x="393" y="72" type="line"/>
      <point x="645" y="488" type="line"/>
      <point x="639" y="488" type="line"/>
      <point x="639" y="0" type="line"/>
      <point x="658" y="0" type="line"/>
      <point x="658" y="517" type="line"/>
      <point x="641" y="517" type="line"/>
      <point x="384" y="90" type="line"/>
      <point x="393" y="90" type="line"/>
      <point x="134" y="517" type="line"/>
      <point x="117" y="517" type="line"/>
    </contour>
  </outline>
</glyph>
<glyph name="pe-cy" format="2">
  <advance width="668"/>
  <unicode hex="043F"/>
  <anchor x="531" y="0" name="bottomleft"/>
  <outline>
    <contour>
      <point x="117" y="0" type="line"/>
      <point x="137" y="0" type="line"/>
      <point x="137" y="506" type="line"/>
      <point x="129" y="498" type="line"/>
      <point x="539" y="498" type="line"/>
      <point x="531" y="506" type="line"/>
      <point x="531" y="0" type="line"/>
      <point x="551" y="0" type="line"/>
      <point x="551" y="517" type="line"/>
      <point x="117" y="517" type="line"/>
    </contour>
  </outline>
</glyph>
<glyph name="ef-cy" format="2">
  <advance width="744"/>
  <unicode hex="0444"/>
  <outline>
    <contour>
      <point x="371" y="-3" type="curve" smooth="yes"/>
      <point x="568" y="-3"/>
      <point x="683" y="94"/>
      <point x="683" y="259" type="curve" smooth="yes"/>
      <point x="683" y="422"/>
      <point x="569" y="519"/>
      <point x="373" y="520" type="curve" smooth="yes"/>
      <point x="372" y="520"/>
      <point x="372" y="520"/>
      <point x="371" y="520" type="curve" smooth="yes"/>
      <point x="175" y="520"/>
      <point x="60" y="423"/>
      <point x="60" y="259" type="curve" smooth="yes"/>
      <point x="60" y="95"/>
      <point x="173" y="-2"/>
      <point x="367" y="-3" type="curve" smooth="yes"/>
      <point x="368" y="-3"/>
      <point x="370" y="-3"/>
    </contour>
    <contour>
      <point x="372" y="16" type="curve" smooth="yes"/>
      <point x="371" y="16"/>
      <point x="370" y="16"/>
      <point x="369" y="16" type="curve" smooth="yes"/>
      <point x="187" y="17"/>
      <point x="80" y="107"/>
      <point x="80" y="259" type="curve" smooth="yes"/>
      <point x="80" y="410"/>
      <point x="186" y="500"/>
      <point x="368" y="501" type="curve" smooth="yes"/>
      <point x="369" y="501"/>
      <point x="371" y="501"/>
      <point x="372" y="501" type="curve" smooth="yes"/>
      <point x="555" y="501"/>
      <point x="663" y="411"/>
      <point x="663" y="259" type="curve" smooth="yes"/>
      <point x="663" y="106"/>
      <point x="555" y="16"/>
    </contour>
    <contour>
      <point x="361" y="-194" type="line"/>
      <point x="381" y="-194" type="line"/>
      <point x="381" y="742" type="line"/>
      <point x="361" y="742" type="line"/>
    </contour>
  </outline>
</glyph>
<glyph name="hardsign-cy" format="2">
  <advance width="582"/>
  <unicode hex="044A"/>
  <guideline x="522" y="407" angle="0"/>
  <outline>
    <contour>
      <point x="352" y="323" type="curve" smooth="yes"/>
      <point x="186" y="323" type="line"/>
      <point x="186" y="517" type="line"/>
      <point x="-4" y="517" type="line"/>
      <point x="-4" y="498" type="line"/>
      <point x="166" y="498" type="line"/>
      <point x="166" y="0" type="line"/>
      <point x="343" y="0" type="line" smooth="yes"/>
      <point x="472" y="0"/>
      <point x="541" y="56"/>
      <point x="541" y="164" type="curve" smooth="yes"/>
      <point x="541" y="268"/>
      <point x="476" y="323"/>
    </contour>
    <contour>
      <point x="346" y="18" type="curve" smooth="yes"/>
      <point x="186" y="18" type="line"/>
      <point x="186" y="305" type="line"/>
      <point x="346" y="305" type="line" smooth="yes"/>
      <point x="463" y="305"/>
      <point x="521" y="258"/>
      <point x="521" y="163" type="curve" smooth="yes"/>
      <point x="521" y="67"/>
      <point x="462" y="18"/>
    </contour>
  </outline>
</glyph>
<glyph name="ereversed-cy" format="2">
  <advance width="564"/>
  <unicode hex="044D"/>
  <guideline x="80" y="537" angle="90"/>
  <anchor x="252" y="517" name="top"/>
  <outline>
    <contour>
      <point x="172" y="255" type="line"/>
      <point x="491" y="255" type="line"/>
      <point x="491" y="273" type="line"/>
      <point x="172" y="273" type="line"/>
    </contour>
    <contour>
      <point x="239" y="519" type="curve" smooth="yes"/>
      <point x="162" y="519"/>
      <point x="91" y="496"/>
      <point x="44" y="451" type="curve"/>
      <point x="56" y="438" type="line"/>
      <point x="106" y="483"/>
      <point x="168" y="501"/>
      <point x="239" y="501" type="curve" smooth="yes"/>
      <point x="377" y="501"/>
      <point x="484" y="396"/>
      <point x="484" y="258" type="curve" smooth="yes"/>
      <point x="484" y="121"/>
      <point x="377" y="16"/>
      <point x="239" y="16" type="curve" smooth="yes"/>
      <point x="168" y="16"/>
      <point x="106" y="33"/>
      <point x="56" y="78" type="curve"/>
      <point x="44" y="64" type="line"/>
      <point x="91" y="19"/>
      <point x="162" y="-3"/>
      <point x="239" y="-3" type="curve" smooth="yes"/>
      <point x="389" y="-3"/>
      <point x="504" y="109"/>
      <point x="504" y="258" type="curve" smooth="yes"/>
      <point x="504" y="408"/>
      <point x="389" y="519"/>
    </contour>
  </outline>
</glyph>
<glyph name="ia-cy" format="2">
  <advance width="594"/>
  <unicode hex="044F"/>
  <outline>
    <contour>
      <point x="457" y="0" type="line"/>
      <point x="477" y="0" type="line"/>
      <point x="477" y="517" type="line"/>
      <point x="278" y="517" type="line" smooth="yes"/>
      <point x="155" y="517"/>
      <point x="74" y="465"/>
      <point x="74" y="350" type="curve" smooth="yes"/>
      <point x="74" y="242"/>
      <point x="146" y="188"/>
      <point x="270" y="188" type="curve" smooth="yes"/>
      <point x="465" y="188" type="line"/>
      <point x="457" y="196" type="line"/>
    </contour>
    <contour>
      <point x="73" y="0" type="line"/>
      <point x="96" y="0" type="line"/>
      <point x="241" y="200" type="line"/>
      <point x="218" y="200" type="line"/>
    </contour>
    <contour>
      <point x="457" y="199" type="line"/>
      <point x="465" y="206" type="line"/>
      <point x="273" y="206" type="line" smooth="yes"/>
      <point x="155" y="206"/>
      <point x="94" y="253"/>
      <point x="94" y="350" type="curve" smooth="yes"/>
      <point x="94" y="454"/>
      <point x="162" y="498"/>
      <point x="280" y="498" type="curve" smooth="yes"/>
      <point x="465" y="498" type="line"/>
      <point x="457" y="506" type="line"/>
    </contour>
  </outline>
</glyph>
<glyph name="izhitsa-cy" format="2">
  <advance width="533"/>
  <unicode hex="0475"/>
  <outline>
    <contour>
      <point x="246" y="0" type="line"/>
      <point x="266" y="0" type="line"/>
      <point x="416" y="392" type="line" smooth="yes"/>
      <point x="455" y="494"/>
      <point x="474" y="511"/>
      <point x="532" y="494" type="curve"/>
      <point x="535" y="514" type="line"/>
      <point x="468" y="532"/>
      <point x="439" y="508"/>
      <point x="398" y="401" type="curve" smooth="yes"/>
      <point x="251" y="14" type="line"/>
      <point x="261" y="14" type="line"/>
      <point x="42" y="517" type="line"/>
      <point x="19" y="517" type="line"/>
    </contour>
  </outline>
</glyph>
<glyph name="Ghemiddlehook-cy" format="2">
  <advance width="697"/>
  <unicode hex="0494"/>
  <outline>
    <contour>
      <point x="137" y="0" type="line"/>
      <point x="157" y="0" type="line"/>
      <point x="157" y="690" type="line"/>
      <point x="148" y="681" type="line"/>
      <point x="573" y="681" type="line"/>
      <point x="573" y="700" type="line"/>
      <point x="137" y="700" type="line"/>
    </contour>
    <contour>
      <point x="323" y="-126" type="line"/>
      <point x="498" y="-158"/>
      <point x="633" y="-40"/>
      <point x="633" y="145" type="curve" smooth="yes"/>
      <point x="633" y="393"/>
      <point x="366" y="484"/>
      <point x="140" y="312" type="curve"/>
      <point x="152" y="296" type="line"/>
      <point x="364" y="458"/>
      <point x="613" y="377"/>
      <point x="613" y="145" type="curve" smooth="yes"/>
      <point x="613" y="-27"/>
      <point x="489" y="-136"/>
      <point x="327" y="-106" type="curve"/>
    </contour>
  </outline>
</glyph>
<glyph name="Kabashkir-cy" format="2">
  <advance width="785"/>
  <unicode hex="04A0"/>
  <anchor x="477" y="0" name="bottom"/>
  <anchor x="477" y="701" name="top"/>
  <outline>
    <contour>
      <point x="8" y="681" type="line"/>
      <point x="258" y="681" type="line"/>
      <point x="258" y="700" type="line"/>
      <point x="8" y="700" type="line"/>
    </contour>
    <contour>
      <point x="733" y="0" type="line"/>
      <point x="758" y="0" type="line"/>
      <point x="450" y="365" type="line"/>
      <point x="432" y="357" type="line"/>
    </contour>
    <contour>
      <point x="238" y="0" type="line"/>
      <point x="258" y="0" type="line"/>
      <point x="258" y="700" type="line"/>
      <point x="238" y="700" type="line"/>
    </contour>
    <contour>
      <point x="250" y="347" type="line"/>
      <point x="454" y="347" type="line"/>
      <point x="454" y="366" type="line"/>
      <point x="250" y="366" type="line"/>
    </contour>
    <contour>
      <point x="450" y="349" type="line"/>
      <point x="737" y="700" type="line"/>
      <point x="712" y="700" type="line"/>
      <point x="432" y="357" type="line"/>
    </contour>
  </outline>
</glyph>
<glyph name="Pemiddlehook-cy" format="2">
  <advance width="1221"/>
  <unicode hex="04A6"/>
  <anchor x="676" y="0" name="bottomleft"/>
  <outline>
    <contour>
      <point x="856" y="-124" type="line"/>
      <point x="1024" y="-165"/>
      <point x="1168" y="-40"/>
      <point x="1168" y="145" type="curve" smooth="yes"/>
      <point x="1168" y="388"/>
      <point x="910" y="483"/>
      <point x="689" y="321" type="curve"/>
      <point x="689" y="297" type="line"/>
      <point x="897" y="461"/>
      <point x="1148" y="377"/>
      <point x="1148" y="144" type="curve" smooth="yes"/>
      <point x="1148" y="-28"/>
      <point x="1017" y="-142"/>
      <point x="861" y="-106" type="curve"/>
    </contour>
    <component base="Pe-cy"/>
  </outline>
</glyph>
<glyph name="pemiddlehook-cy" format="2">
  <advance width="955"/>
  <unicode hex="04A7"/>
  <outline>
    <contour>
      <point x="117" y="0" type="line"/>
      <point x="137" y="0" type="line"/>
      <point x="137" y="506" type="line"/>
      <point x="129" y="498" type="line"/>
      <point x="518" y="498" type="line"/>
      <point x="510" y="506" type="line"/>
      <point x="510" y="0" type="line"/>
      <point x="530" y="0" type="line"/>
      <point x="530" y="517" type="line"/>
      <point x="117" y="517" type="line"/>
    </contour>
    <contour>
      <point x="630" y="-192" type="line"/>
      <point x="801" y="-222"/>
      <point x="924" y="-126"/>
      <point x="924" y="43" type="curve" smooth="yes"/>
      <point x="924" y="276"/>
      <point x="692" y="334"/>
      <point x="522" y="208" type="curve"/>
      <point x="522" y="185" type="line"/>
      <point x="674" y="308"/>
      <point x="904" y="270"/>
      <point x="904" y="43" type="curve" smooth="yes"/>
      <point x="904" y="-116"/>
      <point x="792" y="-200"/>
      <point x="635" y="-174" type="curve"/>
    </contour>
  </outline>
</glyph>
<glyph name="Haabkhasian-cy" format="2">
  <advance width="967"/>
  <unicode hex="04A8"/>
  <outline>
    <contour>
      <point x="445" y="-3" type="curve" smooth="yes"/>
      <point x="687" y="-3"/>
      <point x="869" y="180"/>
      <point x="869" y="405" type="curve" smooth="yes"/>
      <point x="869" y="577"/>
      <point x="762" y="703"/>
      <point x="610" y="703" type="curve" smooth="yes"/>
      <point x="456" y="703"/>
      <point x="347" y="573"/>
      <point x="347" y="397" type="curve" smooth="yes"/>
      <point x="347" y="121"/>
      <point x="599" y="-61"/>
      <point x="879" y="14" type="curve"/>
      <point x="873" y="34" type="line"/>
      <point x="607" y="-39"/>
      <point x="367" y="135"/>
      <point x="367" y="397" type="curve" smooth="yes"/>
      <point x="367" y="564"/>
      <point x="469" y="683"/>
      <point x="610" y="683" type="curve" smooth="yes"/>
      <point x="750" y="683"/>
      <point x="849" y="566"/>
      <point x="849" y="405" type="curve" smooth="yes"/>
      <point x="849" y="192"/>
      <point x="677" y="17"/>
      <point x="445" y="17" type="curve" smooth="yes"/>
      <point x="238" y="17"/>
      <point x="94" y="158"/>
      <point x="94" y="360" type="curve" smooth="yes"/>
      <point x="94" y="502"/>
      <point x="164" y="618"/>
      <point x="284" y="683" type="curve"/>
      <point x="274" y="701" type="line"/>
      <point x="149" y="632"/>
      <point x="74" y="509"/>
      <point x="74" y="359" type="curve" smooth="yes"/>
      <point x="74" y="147"/>
      <point x="227" y="-3"/>
    </contour>
  </outline>
</glyph>
<glyph name="haabkhasian-cy" format="2">
  <advance width="771"/>
  <unicode hex="04A9"/>
  <outline>
    <contour>
      <point x="353" y="-3" type="curve" smooth="yes"/>
      <point x="540" y="-3"/>
      <point x="685" y="129"/>
      <point x="685" y="301" type="curve" smooth="yes"/>
      <point x="685" y="428"/>
      <point x="601" y="520"/>
      <point x="483" y="520" type="curve" smooth="yes"/>
      <point x="361" y="520"/>
      <point x="276" y="424"/>
      <point x="276" y="293" type="curve" smooth="yes"/>
      <point x="276" y="87"/>
      <point x="473" y="-46"/>
      <point x="692" y="10" type="curve"/>
      <point x="688" y="28" type="line"/>
      <point x="481" y="-26"/>
      <point x="296" y="99"/>
      <point x="296" y="293" type="curve" smooth="yes"/>
      <point x="296" y="415"/>
      <point x="373" y="502"/>
      <point x="483" y="502" type="curve" smooth="yes"/>
      <point x="589" y="502"/>
      <point x="665" y="417"/>
      <point x="665" y="301" type="curve" smooth="yes"/>
      <point x="665" y="139"/>
      <point x="530" y="15"/>
      <point x="354" y="15" type="curve" smooth="yes"/>
      <point x="193" y="15"/>
      <point x="82" y="117"/>
      <point x="82" y="266" type="curve" smooth="yes"/>
      <point x="82" y="370"/>
      <point x="136" y="456"/>
      <point x="228" y="505" type="curve"/>
      <point x="217" y="520" type="line"/>
      <point x="120" y="469"/>
      <point x="62" y="376"/>
      <point x="62" y="266" type="curve" smooth="yes"/>
      <point x="62" y="107"/>
      <point x="182" y="-3"/>
    </contour>
  </outline>
</glyph>
<glyph name="tedescender-cy" format="2">
  <advance width="432"/>
  <unicode hex="04AD"/>
  <anchor x="216" y="0" name="bottom"/>
  <anchor x="206" y="0" name="bottomleft"/>
  <anchor x="216" y="262" name="center"/>
  <anchor x="216" y="517" name="top"/>
  <outline>
    <contour>
      <point x="206" y="0" type="line"/>
      <point x="226" y="0" type="line"/>
      <point x="226" y="506" type="line"/>
      <point x="218" y="498" type="line"/>
      <point x="436" y="498" type="line"/>
      <point x="436" y="517" type="line"/>
      <point x="-4" y="517" type="line"/>
      <point x="-4" y="498" type="line"/>
      <point x="214" y="498" type="line"/>
      <point x="206" y="506" type="line"/>
    </contour>
    <contour>
      <point x="293" y="-121" type="line"/>
      <point x="313" y="-121" type="line"/>
      <point x="313" y="18" type="line"/>
      <point x="206" y="18" type="line"/>
      <point x="206" y="0" type="line"/>
      <point x="301" y="0" type="line"/>
      <point x="293" y="8" type="line"/>
    </contour>
  </outline>
</glyph>
<glyph name="Ustraitstroke-cy" format="2">
  <advance width="620"/>
  <unicode hex="04B0"/>
  <outline>
    <contour>
      <point x="105.9688" y="231" type="line"/>
      <point x="514.5112" y="231" type="line"/>
      <point x="514.5112" y="250" type="line"/>
      <point x="105.9688" y="250" type="line"/>
    </contour>
    <component base="Ustrait-cy"/>
  </outline>
</glyph>
<glyph name="cheverticalstroke-cy" format="2">
  <advance width="579"/>
  <unicode hex="04B9"/>
  <outline>
    <contour>
      <point x="253" y="72" type="line"/>
      <point x="270" y="72" type="line"/>
      <point x="270" y="338" type="line"/>
      <point x="253" y="338" type="line"/>
    </contour>
    <component base="che-cy"/>
  </outline>
</glyph>
<glyph name="cheabkhasian-cy" format="2">
  <advance width="713"/>
  <unicode hex="04BD"/>
  <anchor x="418" y="0" name="bottom"/>
  <anchor x="409" y="517" name="top"/>
  <outline>
    <contour>
      <point x="168" y="259" type="line"/>
      <point x="168" y="278" type="line"/>
      <point x="140" y="278" type="line" smooth="yes"/>
      <point x="48" y="278"/>
      <point x="24" y="353"/>
      <point x="72" y="418" type="curve"/>
      <point x="53" y="428" type="line"/>
      <point x="0" y="345"/>
      <point x="32" y="259"/>
      <point x="140" y="259" type="curve" smooth="yes"/>
    </contour>
    <contour>
      <point x="429" y="-3" type="curve" smooth="yes"/>
      <point x="507" y="-3"/>
      <point x="580" y="26"/>
      <point x="627" y="82" type="curve"/>
      <point x="613" y="96" type="line"/>
      <point x="570" y="42"/>
      <point x="502" y="16"/>
      <point x="429" y="16" type="curve" smooth="yes"/>
      <point x="287" y="16"/>
      <point x="181" y="116"/>
      <point x="181" y="259" type="curve" smooth="yes"/>
      <point x="181" y="263" type="line" smooth="yes"/>
      <point x="181" y="399"/>
      <point x="278" y="501"/>
      <point x="410" y="501" type="curve" smooth="yes"/>
      <point x="542" y="501"/>
      <point x="640" y="399"/>
      <point x="640" y="263" type="curve"/>
      <point x="648" y="278" type="line"/>
      <point x="173" y="278" type="line"/>
      <point x="173" y="259" type="line"/>
      <point x="659" y="259" type="line"/>
      <point x="659" y="261"/>
      <point x="659" y="262"/>
      <point x="659" y="264" type="curve" smooth="yes"/>
      <point x="659" y="414"/>
      <point x="551" y="520"/>
      <point x="410" y="520" type="curve" smooth="yes"/>
      <point x="267" y="520"/>
      <point x="161" y="412"/>
      <point x="161" y="259" type="curve" smooth="yes"/>
      <point x="161" y="106"/>
      <point x="275" y="-3"/>
    </contour>
  </outline>
</glyph>
<glyph name="kahook-cy" format="2">
  <advance width="546"/>
  <unicode hex="04C4"/>
  <guideline x="513" y="361" angle="90"/>
  <outline>
    <contour>
      <point x="391" y="-197" type="curve" smooth="yes"/>
      <point x="465" y="-197"/>
      <point x="515" y="-145"/>
      <point x="515" y="-70" type="curve" smooth="yes"/>
      <point x="515" y="38"/>
      <point x="417" y="186"/>
      <point x="285" y="274" type="curve"/>
      <point x="273" y="259" type="line"/>
      <point x="401" y="174"/>
      <point x="495" y="31"/>
      <point x="495" y="-70" type="curve" smooth="yes"/>
      <point x="495" y="-134"/>
      <point x="454" y="-178"/>
      <point x="391" y="-178" type="curve" smooth="yes"/>
      <point x="363" y="-178"/>
      <point x="333" y="-168"/>
      <point x="302" y="-150" type="curve"/>
      <point x="292" y="-168" type="line"/>
      <point x="325" y="-187"/>
      <point x="359" y="-197"/>
    </contour>
    <contour>
      <point x="117" y="0" type="line"/>
      <point x="137" y="0" type="line"/>
      <point x="137" y="517" type="line"/>
      <point x="117" y="517" type="line"/>
    </contour>
    <contour>
      <point x="130" y="254" type="line"/>
      <point x="287" y="254" type="line"/>
      <point x="287" y="272" type="line"/>
      <point x="130" y="272" type="line"/>
    </contour>
    <contour>
      <point x="285" y="257" type="line"/>
      <point x="512" y="517" type="line"/>
      <point x="488" y="517" type="line"/>
      <point x="267" y="263" type="line"/>
    </contour>
  </outline>
</glyph>
<glyph name="Gestrokehook-cy" format="2">
  <advance width="590"/>
  <unicode hex="04FA"/>
  <anchor x="357" y="700" name="top"/>
  <outline>
    <contour>
      <point x="156" y="0" type="line"/>
      <point x="176" y="0" type="line"/>
      <point x="176" y="681" type="line"/>
      <point x="572" y="681" type="line"/>
      <point x="572" y="700" type="line"/>
      <point x="156" y="700" type="line"/>
    </contour>
    <contour>
      <point x="171" y="-197" type="curve" smooth="yes"/>
      <point x="250" y="-197"/>
      <point x="293" y="-146"/>
      <point x="293" y="-70" type="curve" smooth="yes"/>
      <point x="293" y="19" type="line"/>
      <point x="156" y="19" type="line"/>
      <point x="156" y="0" type="line"/>
      <point x="281" y="0" type="line"/>
      <point x="273" y="8" type="line"/>
      <point x="273" y="-65" type="line" smooth="yes"/>
      <point x="273" y="-138"/>
      <point x="237" y="-178"/>
      <point x="170" y="-178" type="curve" smooth="yes"/>
      <point x="134" y="-178"/>
      <point x="103" y="-167"/>
      <point x="81" y="-146" type="curve"/>
      <point x="67" y="-160" type="line"/>
      <point x="91" y="-185"/>
      <point x="131" y="-197"/>
    </contour>
    <contour>
      <point x="46" y="319" type="line"/>
      <point x="494" y="319" type="line"/>
      <point x="494" y="338" type="line"/>
      <point x="46" y="338" type="line"/>
    </contour>
  </outline>
</glyph>
<glyph name="Hahook-cy" format="2">
  <advance width="610"/>
  <unicode hex="04FC"/>
  <guideline x="588" y="626" angle="90"/>
  <guideline x="349" y="-197" angle="0"/>
  <outline>
    <contour>
      <point x="34" y="0" type="line"/>
      <point x="58" y="0" type="line"/>
      <point x="309" y="348" type="line"/>
      <point x="317" y="359" type="line"/>
      <point x="562" y="700" type="line"/>
      <point x="538" y="700" type="line"/>
      <point x="307" y="379" type="line"/>
      <point x="77" y="700" type="line"/>
      <point x="53" y="700" type="line"/>
      <point x="295" y="362" type="line"/>
    </contour>
    <contour>
      <point x="452" y="-197" type="curve" smooth="yes"/>
      <point x="525" y="-197"/>
      <point x="575" y="-147"/>
      <point x="575" y="-65" type="curve" smooth="yes"/>
      <point x="575" y="50"/>
      <point x="432" y="212"/>
      <point x="315" y="367" type="curve"/>
      <point x="302" y="353" type="line"/>
      <point x="414" y="205"/>
      <point x="555" y="44"/>
      <point x="555" y="-65" type="curve" smooth="yes"/>
      <point x="555" y="-136"/>
      <point x="514" y="-177"/>
      <point x="452" y="-177" type="curve" smooth="yes"/>
      <point x="423" y="-177"/>
      <point x="393" y="-168"/>
      <point x="362" y="-150" type="curve"/>
      <point x="352" y="-168" type="line"/>
      <point x="385" y="-187"/>
      <point x="419" y="-197"/>
    </contour>
  </outline>
</glyph>
<glyph name="Reversedze-cy" format="2">
  <advance width="623"/>
  <unicode hex="0510"/>
  <outline>
    <contour>
      <point x="582" y="99" type="curve"/>
      <point x="569" y="110" type="line"/>
      <point x="413" y="-51"/>
      <point x="101" y="5"/>
      <point x="101" y="197" type="curve" smooth="yes"/>
      <point x="101" y="298"/>
      <point x="181" y="356"/>
      <point x="321" y="356" type="curve" smooth="yes"/>
      <point x="458" y="356" type="line"/>
      <point x="458" y="375" type="line"/>
      <point x="320" y="375" type="line" smooth="yes"/>
      <point x="202" y="375"/>
      <point x="131" y="430"/>
      <point x="131" y="523" type="curve" smooth="yes"/>
      <point x="131" y="683"/>
      <point x="370" y="740"/>
      <point x="549" y="620" type="curve"/>
      <point x="559" y="637" type="line"/>
      <point x="365" y="764"/>
      <point x="111" y="698"/>
      <point x="111" y="524" type="curve" smooth="yes"/>
      <point x="111" y="422"/>
      <point x="189" y="359"/>
      <point x="315" y="359" type="curve"/>
      <point x="311" y="372" type="line"/>
      <point x="170" y="372"/>
      <point x="81" y="304"/>
      <point x="81" y="196" type="curve" smooth="yes"/>
      <point x="81" y="-12"/>
      <point x="417" y="-77"/>
    </contour>
  </outline>
</glyph>
<glyph name="Elhook-cy" format="2">
  <advance width="778"/>
  <unicode hex="0512"/>
  <outline>
    <contour>
      <point x="414" y="-160" type="line"/>
      <point x="495" y="-229"/>
      <point x="640" y="-202"/>
      <point x="640" y="-80" type="curve" smooth="yes"/>
      <point x="640" y="700" type="line"/>
      <point x="204" y="700" type="line"/>
      <point x="192" y="390" type="line" smooth="yes"/>
      <point x="181" y="115"/>
      <point x="140" y="15"/>
      <point x="47" y="15" type="curve" smooth="yes"/>
      <point x="35" y="15"/>
      <point x="26" y="16"/>
      <point x="12" y="19" type="curve"/>
      <point x="8" y="0" type="line"/>
      <point x="24" y="-4"/>
      <point x="35" y="-5"/>
      <point x="49" y="-5" type="curve" smooth="yes"/>
      <point x="154" y="-5"/>
      <point x="200" y="105"/>
      <point x="212" y="389" type="curve" smooth="yes"/>
      <point x="224" y="681" type="line"/>
      <point x="620" y="681" type="line"/>
      <point x="620" y="-75" type="line" smooth="yes"/>
      <point x="620" y="-183"/>
      <point x="504" y="-205"/>
      <point x="428" y="-146" type="curve"/>
    </contour>
  </outline>
</glyph>
<glyph name="Eldescender-cy" format="2">
  <advance width="792"/>
  <unicode hex="052E"/>
  <anchor x="618" y="0" name="#exit"/>
  <anchor x="618" y="0" name="bottomleft"/>
  <outline>
    <contour>
      <point x="48" y="-5" type="curve" smooth="yes"/>
      <point x="153" y="-5"/>
      <point x="200" y="105"/>
      <point x="211" y="389" type="curve" smooth="yes"/>
      <point x="222" y="690" type="line"/>
      <point x="213" y="681" type="line"/>
      <point x="627" y="681" type="line"/>
      <point x="618" y="690" type="line"/>
      <point x="618" y="0" type="line"/>
      <point x="638" y="0" type="line"/>
      <point x="638" y="700" type="line"/>
      <point x="202" y="700" type="line"/>
      <point x="191" y="390" type="line" smooth="yes"/>
      <point x="181" y="115"/>
      <point x="139" y="15"/>
      <point x="46" y="15" type="curve" smooth="yes"/>
      <point x="34" y="15"/>
      <point x="25" y="16"/>
      <point x="11" y="19" type="curve"/>
      <point x="7" y="0" type="line"/>
      <point x="23" y="-4"/>
      <point x="34" y="-5"/>
    </contour>
    <contour>
      <point x="735" y="-165" type="line"/>
      <point x="755" y="-165" type="line"/>
      <point x="755" y="19" type="line"/>
      <point x="618" y="19" type="line"/>
      <point x="618" y="0" type="line"/>
      <point x="744" y="0" type="line"/>
      <point x="735" y="9" type="line"/>
    </contour>
  </outline>
</glyph>
<glyph name="dagger" format="2">
  <advance width="520"/>
  <unicode hex="2020"/>
  <outline>
    <contour>
      <point x="250" y="-194" type="line"/>
      <point x="270" y="-194" type="line"/>
      <point x="270" y="410" type="line"/>
      <point x="490" y="410" type="line"/>
      <point x="490" y="429" type="line"/>
      <point x="270" y="429" type="line"/>
      <point x="270" y="700" type="line"/>
      <point x="250" y="700" type="line"/>
      <point x="250" y="429" type="line"/>
      <point x="30" y="429" type="line"/>
      <point x="30" y="410" type="line"/>
      <point x="250" y="410" type="line"/>
    </contour>
  </outline>
</glyph>
<glyph name="franc" format="2">
  <advance width="636"/>
  <unicode hex="20A3"/>
  <outline>
    <contour>
      <point x="30" y="157" type="line"/>
      <point x="390" y="157" type="line"/>
      <point x="390" y="175" type="line"/>
      <point x="30" y="175" type="line"/>
    </contour>
    <contour>
      <point x="155" y="345" type="line"/>
      <point x="155" y="326" type="line"/>
      <point x="546" y="326" type="line"/>
      <point x="546" y="345" type="line"/>
    </contour>
    <contour>
      <point x="160" y="0" type="line"/>
      <point x="160" y="681" type="line"/>
      <point x="591" y="681" type="line"/>
      <point x="591" y="700" type="line"/>
      <point x="140" y="700" type="line"/>
      <point x="140" y="0" type="line"/>
    </contour>
  </outline>
</glyph>
<glyph name="naira" format="2">
  <advance width="850"/>
  <unicode hex="20A6"/>
  <outline>
    <contour>
      <point x="150" y="0" type="line"/>
      <point x="170" y="0" type="line"/>
      <point x="170" y="677" type="line"/>
      <point x="159" y="677" type="line"/>
      <point x="683" y="0" type="line"/>
      <point x="700" y="0" type="line"/>
      <point x="700" y="700" type="line"/>
      <point x="680" y="700" type="line"/>
      <point x="680" y="23" type="line"/>
      <point x="691" y="23" type="line"/>
      <point x="167" y="700" type="line"/>
      <point x="150" y="700" type="line"/>
    </contour>
    <contour>
      <point x="30" y="272" type="line"/>
      <point x="820" y="272" type="line"/>
      <point x="820" y="290" type="line"/>
      <point x="30" y="290" type="line"/>
    </contour>
    <contour>
      <point x="30" y="410" type="line"/>
      <point x="820" y="410" type="line"/>
      <point x="820" y="428" type="line"/>
      <point x="30" y="428" type="line"/>
    </contour>
  </outline>
</glyph>
<glyph name="tugrik" format="2">
  <advance width="658"/>
  <unicode hex="20AE"/>
  <outline>
    <contour>
      <point x="319" y="0" type="line"/>
      <point x="339" y="0" type="line"/>
      <point x="339" y="690" type="line"/>
      <point x="330" y="681" type="line"/>
      <point x="599" y="681" type="line"/>
      <point x="599" y="700" type="line"/>
      <point x="59" y="700" type="line"/>
      <point x="59" y="681" type="line"/>
      <point x="328" y="681" type="line"/>
      <point x="319" y="690" type="line"/>
    </contour>
    <contour>
      <point x="119" y="150" type="line"/>
      <point x="539" y="368" type="line"/>
      <point x="539" y="388" type="line"/>
      <point x="119" y="170" type="line"/>
    </contour>
    <contour>
      <point x="119" y="290" type="line"/>
      <point x="539" y="508" type="line"/>
      <point x="539" y="528" type="line"/>
      <point x="119" y="310" type="line"/>
    </contour>
  </outline>
</glyph>
<glyph name="liraTurkish" format="2">
  <advance width="662"/>
  <unicode hex="20BA"/>
  <guideline x="218" y="466" angle="0"/>
  <guideline x="218" y="355" angle="0"/>
  <outline>
    <contour>
      <point x="150" y="0" type="line"/>
      <point x="235" y="0" type="line" smooth="yes"/>
      <point x="485" y="0"/>
      <point x="612" y="125"/>
      <point x="612" y="349" type="curve"/>
      <point x="593" y="349" type="line"/>
      <point x="593" y="138"/>
      <point x="472" y="20"/>
      <point x="235" y="20" type="curve" smooth="yes"/>
      <point x="170" y="20" type="line"/>
      <point x="170" y="699" type="line"/>
      <point x="150" y="699" type="line"/>
    </contour>
    <contour>
      <point x="30" y="236" type="line"/>
      <point x="469" y="464" type="line"/>
      <point x="469" y="484" type="line"/>
      <point x="30" y="256" type="line"/>
    </contour>
    <contour>
      <point x="30" y="376" type="line"/>
      <point x="469" y="604" type="line"/>
      <point x="469" y="624" type="line"/>
      <point x="30" y="396" type="line"/>
    </contour>
  </outline>
</glyph>
<glyph name="trademark" format="2">
  <advance width="1006"/>
  <unicode hex="2122"/>
  <outline>
    <contour>
      <point x="424" y="285" type="line"/>
      <point x="443" y="285" type="line"/>
      <point x="443" y="671" type="line"/>
      <point x="436" y="671" type="line"/>
      <point x="643" y="342" type="line"/>
      <point x="654" y="342" type="line"/>
      <point x="859" y="671" type="line"/>
      <point x="854" y="671" type="line"/>
      <point x="854" y="285" type="line"/>
      <point x="873" y="285" type="line"/>
      <point x="873" y="700" type="line"/>
      <point x="856" y="700" type="line"/>
      <point x="644" y="360" type="line"/>
      <point x="653" y="360" type="line"/>
      <point x="441" y="700" type="line"/>
      <point x="424" y="700" type="line"/>
    </contour>
    <contour>
      <point x="169" y="285" type="line"/>
      <point x="189" y="285" type="line"/>
      <point x="189" y="682" type="line"/>
      <point x="354" y="682" type="line"/>
      <point x="354" y="700" type="line"/>
      <point x="4" y="700" type="line"/>
      <point x="4" y="682" type="line"/>
      <point x="169" y="682" type="line"/>
    </contour>
  </outline>
</glyph>
<glyph name="angstrom" format="2">
  <advance width="688"/>
  <unicode hex="212B"/>
  <anchor x="344" y="0" name="bottom"/>
  <anchor x="679" y="0" name="ogonek"/>
  <anchor x="344" y="903" name="top"/>
  <anchor x="106" y="700" name="topleft"/>
  <outline>
    <contour>
      <point x="9" y="0" type="line"/>
      <point x="32" y="0" type="line"/>
      <point x="349" y="684" type="line"/>
      <point x="339" y="684" type="line"/>
      <point x="656" y="0" type="line"/>
      <point x="679" y="0" type="line"/>
      <point x="354" y="700" type="line"/>
      <point x="334" y="700" type="line"/>
    </contour>
    <contour>
      <point x="116" y="211" type="line"/>
      <point x="571" y="211" type="line"/>
      <point x="561" y="230" type="line"/>
      <point x="126" y="230" type="line"/>
    </contour>
    <contour>
      <point x="343" y="780" type="curve" smooth="yes"/>
      <point x="397" y="780"/>
      <point x="436" y="821"/>
      <point x="436" y="870" type="curve" smooth="yes"/>
      <point x="436" y="920"/>
      <point x="396" y="963"/>
      <point x="343" y="963" type="curve" smooth="yes"/>
      <point x="290" y="963"/>
      <point x="251" y="920"/>
      <point x="251" y="870" type="curve" smooth="yes"/>
      <point x="251" y="821"/>
      <point x="289" y="780"/>
    </contour>
    <contour>
      <point x="343" y="799" type="curve" smooth="yes"/>
      <point x="300" y="799"/>
      <point x="271" y="830"/>
      <point x="271" y="870" type="curve" smooth="yes"/>
      <point x="271" y="911"/>
      <point x="301" y="944"/>
      <point x="343" y="944" type="curve" smooth="yes"/>
      <point x="385" y="944"/>
      <point x="416" y="910"/>
      <point x="416" y="870" type="curve" smooth="yes"/>
      <point x="416" y="831"/>
      <point x="386" y="799"/>
    </contour>
  </outline>
</glyph>
<glyph name="southWestArrow" format="2">
  <advance width="600"/>
  <unicode hex="2199"/>
  <outline>
    <contour>
      <point x="411" y="136" type="line"/>
      <point x="198" y="172" type="line"/>
      <point x="159" y="388" type="line"/>
      <point x="140" y="369" type="line"/>
      <point x="178" y="153" type="line"/>
      <point x="392" y="117" type="line"/>
    </contour>
    <contour>
      <point x="459" y="420" type="line"/>
      <point x="444" y="435" type="line"/>
      <point x="184" y="175" type="line"/>
      <point x="199" y="160" type="line"/>
    </contour>
  </outline>
</glyph>
<glyph name="product" format="2">
  <advance width="816"/>
  <unicode hex="220F"/>
  <outline>
    <contour>
      <point x="133" y="-194" type="line"/>
      <point x="153" y="-194" type="line"/>
      <point x="153" y="681" type="line"/>
      <point x="663" y="681" type="line"/>
      <point x="663" y="-194" type="line"/>
      <point x="683" y="-194" type="line"/>
      <point x="683" y="700" type="line"/>
      <point x="133" y="700" type="line"/>
    </contour>
  </outline>
</glyph>
<glyph name="approxequal" format="2">
  <advance width="560"/>
  <unicode hex="2248"/>
  <outline>
    <contour>
      <point x="382" y="395" type="curve" smooth="yes"/>
      <point x="444" y="395"/>
      <point x="487" y="442"/>
      <point x="491" y="520" type="curve"/>
      <point x="473" y="520" type="line"/>
      <point x="470" y="455"/>
      <point x="437" y="413"/>
      <point x="382" y="413" type="curve" smooth="yes"/>
      <point x="300" y="413"/>
      <point x="273" y="523"/>
      <point x="178" y="523" type="curve" smooth="yes"/>
      <point x="116" y="523"/>
      <point x="73" y="476"/>
      <point x="69" y="398" type="curve"/>
      <point x="87" y="398" type="line"/>
      <point x="90" y="463"/>
      <point x="123" y="505"/>
      <point x="178" y="505" type="curve" smooth="yes"/>
      <point x="260" y="505"/>
      <point x="287" y="395"/>
    </contour>
    <contour>
      <point x="382" y="177" type="curve" smooth="yes"/>
      <point x="444" y="177"/>
      <point x="487" y="224"/>
      <point x="491" y="302" type="curve"/>
      <point x="473" y="302" type="line"/>
      <point x="470" y="237"/>
      <point x="437" y="195"/>
      <point x="382" y="195" type="curve" smooth="yes"/>
      <point x="300" y="195"/>
      <point x="273" y="305"/>
      <point x="178" y="305" type="curve" smooth="yes"/>
      <point x="116" y="305"/>
      <point x="73" y="258"/>
      <point x="69" y="180" type="curve"/>
      <point x="87" y="180" type="line"/>
      <point x="90" y="245"/>
      <point x="123" y="287"/>
      <point x="178" y="287" type="curve" smooth="yes"/>
      <point x="260" y="287"/>
      <point x="287" y="177"/>
    </contour>
  </outline>
</glyph>
<glyph name="notequal" format="2">
  <advance width="560"/>
  <unicode hex="2260"/>
  <outline>
    <contour>
      <point x="125" y="100" type="line"/>
      <point x="147" y="100" type="line"/>
      <point x="435" y="600" type="line"/>
      <point x="413" y="600" type="line"/>
    </contour>
    <contour>
      <point x="75" y="231" type="line"/>
      <point x="485" y="231" type="line"/>
      <point x="485" y="250" type="line"/>
      <point x="75" y="250" type="line"/>
    </contour>
    <contour>
      <point x="75" y="450" type="line"/>
      <point x="485" y="450" type="line"/>
      <point x="485" y="469" type="line"/>
      <point x="75" y="469" type="line"/>
    </contour>
  </outline>
</glyph>
<glyph name="downWhiteTriangle" format="2">
  <advance width="600"/>
  <unicode hex="25BD"/>
  <outline>
    <contour>
      <point x="87" y="478" type="line"/>
      <point x="300" y="52" type="line"/>
      <point x="513" y="478" type="line"/>
    </contour>
    <contour>
      <point x="119" y="458" type="line"/>
      <point x="481" y="458" type="line"/>
      <point x="300" y="97" type="line"/>
    </contour>
  </outline>
</glyph>
<glyph name="lozenge" format="2">
  <advance width="503"/>
  <unicode hex="25CA"/>
  <outline>
    <contour>
      <point x="251" y="34" type="line"/>
      <point x="449" y="330" type="line"/>
      <point x="252" y="623" type="line"/>
      <point x="54" y="330" type="line"/>
    </contour>
    <contour>
      <point x="251" y="70" type="line"/>
      <point x="78" y="330" type="line"/>
      <point x="252" y="589" type="line"/>
      <point x="425" y="330" type="line"/>
    </contour>
  </outline>
</glyph>
<glyph name="rightanglebracket-math" format="2">
  <advance width="302"/>
  <unicode hex="27E9"/>
  <outline>
    <contour>
      <point x="85" y="742" type="line"/>
      <point x="68" y="742" type="line"/>
      <point x="223" y="274" type="line"/>
      <point x="68" y="-194" type="line"/>
      <point x="85" y="-194" type="line"/>
      <point x="243" y="274" type="line"/>
    </contour>
  </outline>
</glyph>
<glyph name="Saltillo" format="2">
  <advance width="208"/>
  <unicode hex="A78B"/>
  <outline>
    <contour>
      <point x="94" y="299" type="line"/>
      <point x="114" y="299" type="line"/>
      <point x="114" y="700" type="line"/>
      <point x="94" y="700" type="line"/>
    </contour>
  </outline>
</glyph>
<glyph name="De-cy.loclBGR" format="2">
  <advance width="734"/>
  <outline>
    <contour>
      <point x="10" y="-165" type="line"/>
      <point x="30" y="-165" type="line"/>
      <point x="30" y="0" type="line"/>
      <point x="704" y="0" type="line"/>
      <point x="704" y="-165" type="line"/>
      <point x="724" y="-165" type="line"/>
      <point x="724" y="19" type="line"/>
      <point x="10" y="19" type="line"/>
    </contour>
    <contour>
      <point x="377" y="700" type="line"/>
      <point x="357" y="700" type="line"/>
      <point x="77" y="0" type="line"/>
      <point x="100" y="0" type="line"/>
      <point x="372" y="684" type="line"/>
      <point x="362" y="684" type="line"/>
      <point x="634" y="0" type="line"/>
      <point x="657" y="0" type="line"/>
    </contour>
  </outline>
</glyph>
<glyph name="Ghestroke-cy.loclBSH" format="2">
  <advance width="570"/>
  <outline>
    <contour>
      <point x="146" y="319" type="line"/>
      <point x="475" y="319" type="line"/>
      <point x="475" y="338" type="line"/>
      <point x="146" y="338" type="line"/>
    </contour>
    <component base="Ge-cy"/>
  </outline>
</glyph>
<glyph name="Gstroke.ss01" format="2">
  <advance width="810"/>
  <outline>
    <contour>
      <point x="421" y="224" type="line"/>
      <point x="781" y="224" type="line"/>
      <point x="781" y="243" type="line"/>
      <point x="421" y="243" type="line"/>
    </contour>
    <component base="G.ss01"/>
  </outline>
</glyph>
<glyph name="I.ss01" format="2">
  <advance width="422"/>
  <anchor x="211" y="0" name="bottom"/>
  <anchor x="221" y="0" name="ogonek"/>
  <anchor x="211" y="700" name="top"/>
  <anchor x="7" y="700" name="topleft"/>
  <outline>
    <contour>
      <point x="201" y="10" type="line"/>
      <point x="221" y="10" type="line"/>
      <point x="221" y="690" type="line"/>
      <point x="201" y="690" type="line"/>
    </contour>
    <contour>
      <point x="47" y="0" type="line"/>
      <point x="375" y="0" type="line"/>
      <point x="375" y="19" type="line"/>
      <point x="47" y="19" type="line"/>
    </contour>
    <contour>
      <point x="47" y="681" type="line"/>
      <point x="375" y="681" type="line"/>
      <point x="375" y="700" type="line"/>
      <point x="47" y="700" type="line"/>
    </contour>
  </outline>
</glyph>
<glyph name="Iacute_J.loclNLD" format="2">
  <advance width="714"/>
  <guideline x="-254" y="699" angle="90"/>
  <guideline x="22" y="699" angle="90"/>
  <guideline x="128" y="732" angle="90"/>
  <outline>
    <contour>
      <point x="327" y="-3" type="curve" smooth="yes"/>
      <point x="484" y="-3"/>
      <point x="587" y="95"/>
      <point x="587" y="293" type="curve" smooth="yes"/>
      <point x="587" y="700" type="line"/>
      <point x="567" y="700" type="line"/>
      <point x="567" y="294" type="line" smooth="yes"/>
      <point x="567" y="107"/>
      <point x="476" y="16"/>
      <point x="328" y="16" type="curve" smooth="yes"/>
      <point x="253" y="16"/>
      <point x="185" y="39"/>
      <point x="132" y="78" type="curve"/>
      <point x="120" y="62" type="line"/>
      <point x="174" y="24"/>
      <point x="247" y="-3"/>
    </contour>
    <contour>
      <point x="127" y="290" type="line"/>
      <point x="147" y="290" type="line"/>
      <point x="147" y="700" type="line"/>
      <point x="127" y="700" type="line"/>
    </contour>
    <contour>
      <point x="122" y="757" type="line"/>
      <point x="152" y="757" type="line"/>
      <point x="302" y="867" type="line"/>
      <point x="262" y="867" type="line"/>
    </contour>
    <contour>
      <point x="564" y="757" type="line"/>
      <point x="594" y="757" type="line"/>
      <point x="744" y="867" type="line"/>
      <point x="704" y="867" type="line"/>
    </contour>
  </outline>
</glyph>
<glyph name="Iacute_J.loclNLD.ss01" format="2">
  <advance width="714"/>
  <outline>
    <contour>
      <point x="327" y="-103" type="curve" smooth="yes"/>
      <point x="484" y="-103"/>
      <point x="587" y="-5"/>
      <point x="587" y="193" type="curve" smooth="yes"/>
      <point x="587" y="700" type="line"/>
      <point x="567" y="700" type="line"/>
      <point x="567" y="194" type="line" smooth="yes"/>
      <point x="567" y="7"/>
      <point x="476" y="-84"/>
      <point x="328" y="-84" type="curve" smooth="yes"/>
      <point x="253" y="-84"/>
      <point x="185" y="-61"/>
      <point x="132" y="-22" type="curve"/>
      <point x="120" y="-38" type="line"/>
      <point x="174" y="-76"/>
      <point x="247" y="-103"/>
    </contour>
    <contour>
      <point x="127" y="190" type="line"/>
      <point x="147" y="190" type="line"/>
      <point x="147" y="700" type="line"/>
      <point x="127" y="700" type="line"/>
    </contour>
    <contour>
      <point x="122" y="757" type="line"/>
      <point x="152" y="757" type="line"/>
      <point x="302" y="867" type="line"/>
      <point x="262" y="867" type="line"/>
    </contour>
    <contour>
      <point x="564" y="757" type="line"/>
      <point x="594" y="757" type="line"/>
      <point x="744" y="867" type="line"/>
      <point x="704" y="867" type="line"/>
    </contour>
  </outline>
</glyph>
<glyph name="Semisoftsign-cy.ss01" format="2">
  <advance width="742"/>
  <anchor x="183" y="590" name="center"/>
  <outline>
    <contour>
      <point x="421" y="-3" type="curve" smooth="yes"/>
      <point x="586" y="-3"/>
      <point x="687" y="87"/>
      <point x="687" y="232" type="curve" smooth="yes"/>
      <point x="687" y="378"/>
      <point x="590" y="466"/>
      <point x="429" y="466" type="curve" smooth="yes"/>
      <point x="318" y="466"/>
      <point x="227" y="424"/>
      <point x="157" y="343" type="curve"/>
      <point x="173" y="331" type="line"/>
      <point x="238" y="407"/>
      <point x="324" y="446"/>
      <point x="429" y="446" type="curve" smooth="yes"/>
      <point x="578" y="446"/>
      <point x="667" y="367"/>
      <point x="667" y="232" type="curve" smooth="yes"/>
      <point x="667" y="99"/>
      <point x="575" y="17"/>
      <point x="421" y="17" type="curve" smooth="yes"/>
      <point x="266" y="17"/>
      <point x="175" y="100"/>
      <point x="175" y="238" type="curve" smooth="yes"/>
      <point x="175" y="742" type="line"/>
      <point x="155" y="742" type="line"/>
      <point x="155" y="238" type="line" smooth="yes"/>
      <point x="155" y="89"/>
      <point x="255" y="-3"/>
    </contour>
    <contour>
      <point x="30" y="580" type="line"/>
      <point x="415" y="580" type="line"/>
      <point x="415" y="599" type="line"/>
      <point x="30" y="599" type="line"/>
    </contour>
  </outline>
</glyph>
<glyph name="Yat-cy.ss01" format="2">
  <advance width="803"/>
  <anchor x="244" y="590" name="center"/>
  <outline>
    <contour>
      <point x="482" y="-3" type="curve" smooth="yes"/>
      <point x="647" y="-3"/>
      <point x="748" y="87"/>
      <point x="748" y="232" type="curve" smooth="yes"/>
      <point x="748" y="378"/>
      <point x="651" y="466"/>
      <point x="490" y="466" type="curve" smooth="yes"/>
      <point x="379" y="466"/>
      <point x="288" y="424"/>
      <point x="218" y="343" type="curve"/>
      <point x="234" y="331" type="line"/>
      <point x="299" y="407"/>
      <point x="385" y="446"/>
      <point x="490" y="446" type="curve" smooth="yes"/>
      <point x="639" y="446"/>
      <point x="728" y="367"/>
      <point x="728" y="232" type="curve" smooth="yes"/>
      <point x="728" y="99"/>
      <point x="636" y="17"/>
      <point x="482" y="17" type="curve" smooth="yes"/>
      <point x="327" y="17"/>
      <point x="236" y="100"/>
      <point x="236" y="238" type="curve" smooth="yes"/>
      <point x="236" y="742" type="line"/>
      <point x="216" y="742" type="line"/>
      <point x="216" y="238" type="line" smooth="yes"/>
      <point x="216" y="89"/>
      <point x="316" y="-3"/>
    </contour>
    <contour>
      <point x="18" y="580" type="line"/>
      <point x="466" y="580" type="line"/>
      <point x="466" y="599" type="line"/>
      <point x="18" y="599" type="line"/>
    </contour>
  </outline>
</glyph>
<glyph name="ae.sc.ss01" format="2">
  <advance width="895"/>
  <anchor x="442" y="0" name="bottom"/>
  <anchor x="442" y="559" name="top"/>
  <outline>
    <contour>
      <point x="462" y="0" type="line"/>
      <point x="842" y="0" type="line"/>
      <point x="842" y="18" type="line"/>
      <point x="482" y="18" type="line"/>
      <point x="482" y="275" type="line"/>
      <point x="793" y="275" type="line"/>
      <point x="793" y="293" type="line"/>
      <point x="482" y="293" type="line"/>
      <point x="482" y="540" type="line"/>
      <point x="830" y="540" type="line"/>
      <point x="830" y="559" type="line"/>
      <point x="462" y="559" type="line"/>
    </contour>
    <contour>
      <point x="123" y="190" type="line"/>
      <point x="472" y="190" type="line"/>
      <point x="472" y="209" type="line"/>
      <point x="123" y="209" type="line"/>
    </contour>
    <contour>
      <point x="109" y="0" type="line"/>
      <point x="129" y="0" type="line"/>
      <point x="129" y="323" type="line" smooth="yes"/>
      <point x="129" y="461"/>
      <point x="200" y="540"/>
      <point x="325" y="540" type="curve" smooth="yes"/>
      <point x="472" y="540" type="line"/>
      <point x="472" y="559" type="line"/>
      <point x="325" y="559" type="line" smooth="yes"/>
      <point x="188" y="559"/>
      <point x="109" y="472"/>
      <point x="109" y="323" type="curve" smooth="yes"/>
    </contour>
  </outline>
</glyph>
<glyph name="brevecomb-cy.case" format="2">
  <guideline x="338" y="868" angle="0"/>
  <guideline x="313" y="755" angle="0"/>
  <anchor x="228" y="700" name="_top"/>
  <outline>
    <contour>
      <point x="228" y="755" type="curve" smooth="yes"/>
      <point x="307" y="755"/>
      <point x="370" y="798"/>
      <point x="372" y="868" type="curve"/>
      <point x="351" y="868" type="line"/>
      <point x="349" y="810"/>
      <point x="297" y="773"/>
      <point x="228" y="773" type="curve" smooth="yes"/>
      <point x="158" y="773"/>
      <point x="106" y="810"/>
      <point x="104" y="868" type="curve"/>
      <point x="83" y="868" type="line"/>
      <point x="85" y="798"/>
      <point x="148" y="755"/>
    </contour>
  </outline>
</glyph>
<glyph name="c.sc" format="2">
  <advance width="588"/>
  <anchor x="339" y="0" name="bottom"/>
  <anchor x="339" y="559" name="top"/>
  <outline>
    <contour>
      <point x="347" y="-3" type="curve" smooth="yes"/>
      <point x="422" y="-3"/>
      <point x="492" y="22"/>
      <point x="541" y="70" type="curve"/>
      <point x="529" y="84" type="line"/>
      <point x="478" y="36"/>
      <point x="416" y="17"/>
      <point x="347" y="17" type="curve" smooth="yes"/>
      <point x="193" y="17"/>
      <point x="76" y="131"/>
      <point x="76" y="280" type="curve" smooth="yes"/>
      <point x="76" y="429"/>
      <point x="193" y="543"/>
      <point x="347" y="543" type="curve" smooth="yes"/>
      <point x="416" y="543"/>
      <point x="478" y="524"/>
      <point x="529" y="476" type="curve"/>
      <point x="541" y="490" type="line"/>
      <point x="492" y="538"/>
      <point x="422" y="562"/>
      <point x="347" y="562" type="curve" smooth="yes"/>
      <point x="181" y="562"/>
      <point x="56" y="441"/>
      <point x="56" y="280" type="curve" smooth="yes"/>
      <point x="56" y="118"/>
      <point x="181" y="-3"/>
    </contour>
  </outline>
</glyph>
<glyph name="commaaccentcomb.alt" format="2">
  <anchor x="300" y="517" name="_top"/>
  <outline>
    <contour>
      <point x="321" y="809" type="line"/>
      <point x="303" y="809" type="line"/>
      <point x="280" y="732" type="line" smooth="yes"/>
      <point x="277" y="721"/>
      <point x="274" y="711"/>
      <point x="274" y="700" type="curve" smooth="yes"/>
      <point x="274" y="688"/>
      <point x="284" y="674"/>
      <point x="300" y="674" type="curve" smooth="yes"/>
      <point x="315" y="674"/>
      <point x="326" y="686"/>
      <point x="326" y="700" type="curve" smooth="yes"/>
      <point x="326" y="714"/>
      <point x="314" y="726"/>
      <point x="300" y="726" type="curve"/>
      <point x="301" y="715" type="line"/>
    </contour>
  </outline>
</glyph>
<glyph name="descender-cy" format="2">
  <advance width="285"/>
  <anchor x="65" y="0" name="_bottomleft"/>
  <outline>
    <contour>
      <point x="152" y="-121" type="line"/>
      <point x="172" y="-121" type="line"/>
      <point x="172" y="18" type="line"/>
      <point x="65" y="18" type="line"/>
      <point x="65" y="0" type="line"/>
      <point x="160" y="0" type="line"/>
      <point x="152" y="8" type="line"/>
    </contour>
  </outline>
</glyph>
<glyph name="eight.dnom" format="2">
  <advance width="430"/>
  <outline>
    <contour>
      <point x="214" y="-2" type="curve" smooth="yes"/>
      <point x="328" y="-2"/>
      <point x="393" y="44"/>
      <point x="393" y="111" type="curve" smooth="yes"/>
      <point x="393" y="179"/>
      <point x="328" y="223"/>
      <point x="214" y="223" type="curve" smooth="yes"/>
      <point x="101" y="223"/>
      <point x="37" y="179"/>
      <point x="37" y="111" type="curve" smooth="yes"/>
      <point x="37" y="44"/>
      <point x="101" y="-2"/>
    </contour>
    <contour>
      <point x="214" y="16" type="curve" smooth="yes"/>
      <point x="112" y="16"/>
      <point x="56" y="54"/>
      <point x="56" y="112" type="curve" smooth="yes"/>
      <point x="56" y="169"/>
      <point x="113" y="208"/>
      <point x="214" y="208" type="curve" smooth="yes"/>
      <point x="316" y="208"/>
      <point x="374" y="169"/>
      <point x="374" y="112" type="curve" smooth="yes"/>
      <point x="374" y="54"/>
      <point x="316" y="16"/>
    </contour>
    <contour>
      <point x="214" y="210" type="curve" smooth="yes"/>
      <point x="320" y="210"/>
      <point x="377" y="252"/>
      <point x="377" y="313" type="curve" smooth="yes"/>
      <point x="377" y="374"/>
      <point x="315" y="417"/>
      <point x="214" y="417" type="curve" smooth="yes"/>
      <point x="114" y="417"/>
      <point x="53" y="374"/>
      <point x="53" y="313" type="curve" smooth="yes"/>
      <point x="53" y="252"/>
      <point x="109" y="210"/>
    </contour>
    <contour>
      <point x="214" y="225" type="curve" smooth="yes"/>
      <point x="123" y="225"/>
      <point x="72" y="261"/>
      <point x="72" y="313" type="curve" smooth="yes"/>
      <point x="72" y="365"/>
      <point x="124" y="399"/>
      <point x="214" y="399" type="curve" smooth="yes"/>
      <point x="304" y="399"/>
      <point x="358" y="365"/>
      <point x="358" y="312" type="curve" smooth="yes"/>
      <point x="358" y="261"/>
      <point x="306" y="225"/>
    </contour>
  </outline>
</glyph>
<glyph name="eng.sc" format="2">
  <advance width="692"/>
  <outline>
    <contour>
      <point x="122" y="0" type="line"/>
      <point x="142" y="0" type="line"/>
      <point x="142" y="535" type="line"/>
      <point x="132" y="535" type="line"/>
      <point x="553" y="0" type="line"/>
      <point x="560" y="24" type="line"/>
      <point x="139" y="559" type="line"/>
      <point x="122" y="559" type="line"/>
    </contour>
    <contour>
      <point x="433" y="-158" type="curve" smooth="yes"/>
      <point x="522" y="-158"/>
      <point x="570" y="-103"/>
      <point x="570" y="2" type="curve" smooth="yes"/>
      <point x="570" y="559" type="line"/>
      <point x="550" y="559" type="line"/>
      <point x="550" y="3" type="line" smooth="yes"/>
      <point x="550" y="-93"/>
      <point x="511" y="-139"/>
      <point x="433" y="-139" type="curve" smooth="yes"/>
      <point x="392" y="-139"/>
      <point x="355" y="-125"/>
      <point x="328" y="-100" type="curve"/>
      <point x="314" y="-114" type="line"/>
      <point x="345" y="-143"/>
      <point x="388" y="-158"/>
    </contour>
  </outline>
</glyph>
<glyph name="eogonek.sc.ss01" format="2">
  <advance width="519"/>
  <anchor x="277" y="559" name="top"/>
  <outline>
    <contour>
      <point x="419" y="-213" type="curve" smooth="yes"/>
      <point x="447" y="-213"/>
      <point x="471" y="-205"/>
      <point x="493" y="-186" type="curve"/>
      <point x="482" y="-171" type="line"/>
      <point x="466" y="-186"/>
      <point x="443" y="-194"/>
      <point x="420" y="-194" type="curve" smooth="yes"/>
      <point x="379" y="-194"/>
      <point x="349" y="-171"/>
      <point x="349" y="-128" type="curve" smooth="yes"/>
      <point x="349" y="-83"/>
      <point x="374" y="-25"/>
      <point x="483" y="72" type="curve"/>
      <point x="470" y="87" type="line"/>
      <point x="429" y="42"/>
      <point x="355" y="16"/>
      <point x="268" y="16" type="curve" smooth="yes"/>
      <point x="138" y="16"/>
      <point x="76" y="70"/>
      <point x="76" y="149" type="curve" smooth="yes"/>
      <point x="76" y="235"/>
      <point x="149" y="275"/>
      <point x="252" y="275" type="curve" smooth="yes"/>
      <point x="385" y="275" type="line"/>
      <point x="385" y="293" type="line"/>
      <point x="252" y="293" type="line" smooth="yes"/>
      <point x="157" y="293"/>
      <point x="100" y="337"/>
      <point x="100" y="415" type="curve" smooth="yes"/>
      <point x="100" y="487"/>
      <point x="160" y="543"/>
      <point x="280" y="543" type="curve" smooth="yes"/>
      <point x="342" y="543"/>
      <point x="399" y="527"/>
      <point x="447" y="498" type="curve"/>
      <point x="456" y="514" type="line"/>
      <point x="412" y="545"/>
      <point x="346" y="562"/>
      <point x="279" y="562" type="curve" smooth="yes"/>
      <point x="148" y="562"/>
      <point x="80" y="496"/>
      <point x="80" y="416" type="curve" smooth="yes"/>
      <point x="80" y="332"/>
      <point x="141" y="278"/>
      <point x="246" y="278" type="curve"/>
      <point x="243" y="290" type="line"/>
      <point x="137" y="290"/>
      <point x="56" y="241"/>
      <point x="56" y="147" type="curve" smooth="yes"/>
      <point x="56" y="61"/>
      <point x="127" y="-3"/>
      <point x="267" y="-3" type="curve" smooth="yes"/>
      <point x="323" y="-3"/>
      <point x="372" y="7"/>
      <point x="425" y="30" type="curve"/>
      <point x="422" y="38" type="line"/>
      <point x="348" y="-32"/>
      <point x="329" y="-86"/>
      <point x="329" y="-128" type="curve" smooth="yes"/>
      <point x="329" y="-180"/>
      <point x="367" y="-213"/>
    </contour>
  </outline>
</glyph>
<glyph name="exclam.sc" format="2">
  <advance width="242"/>
  <outline>
    <contour>
      <point x="114" y="168" type="line"/>
      <point x="128" y="168" type="line"/>
      <point x="132" y="559" type="line"/>
      <point x="110" y="559" type="line"/>
    </contour>
    <contour>
      <point x="121" y="-3" type="curve" smooth="yes"/>
      <point x="135" y="-3"/>
      <point x="147" y="9"/>
      <point x="147" y="23" type="curve" smooth="yes"/>
      <point x="147" y="37"/>
      <point x="135" y="49"/>
      <point x="121" y="49" type="curve" smooth="yes"/>
      <point x="107" y="49"/>
      <point x="95" y="37"/>
      <point x="95" y="23" type="curve" smooth="yes"/>
      <point x="95" y="9"/>
      <point x="107" y="-3"/>
    </contour>
  </outline>
</glyph>
<glyph name="exclamdown.sc" format="2">
  <advance width="242"/>
  <outline>
    <contour>
      <point x="128" y="391" type="line"/>
      <point x="114" y="391" type="line"/>
      <point x="110" y="0" type="line"/>
      <point x="132" y="0" type="line"/>
    </contour>
    <contour>
      <point x="121" y="562" type="curve" smooth="yes"/>
      <point x="107" y="562"/>
      <point x="95" y="550"/>
      <point x="95" y="536" type="curve" smooth="yes"/>
      <point x="95" y="522"/>
      <point x="107" y="510"/>
      <point x="121" y="510" type="curve" smooth="yes"/>
      <point x="135" y="510"/>
      <point x="147" y="522"/>
      <point x="147" y="536" type="curve" smooth="yes"/>
      <point x="147" y="550"/>
      <point x="135" y="562"/>
    </contour>
  </outline>
</glyph>
<glyph name="ezh.sc" format="2">
  <advance width="546"/>
  <anchor x="263" y="0" name="bottom"/>
  <anchor x="263" y="559" name="top"/>
  <outline>
    <contour>
      <point x="264" y="-3" type="curve" smooth="yes"/>
      <point x="400" y="-3"/>
      <point x="473" y="61"/>
      <point x="473" y="154" type="curve" smooth="yes"/>
      <point x="473" y="247"/>
      <point x="400" y="310"/>
      <point x="252" y="310" type="curve" smooth="yes"/>
      <point x="237" y="310" type="line"/>
      <point x="241" y="303" type="line"/>
      <point x="449" y="544" type="line"/>
      <point x="449" y="559" type="line"/>
      <point x="67" y="559" type="line"/>
      <point x="67" y="540" type="line"/>
      <point x="430" y="540" type="line"/>
      <point x="428" y="547" type="line"/>
      <point x="219" y="306" type="line"/>
      <point x="219" y="292" type="line"/>
      <point x="252" y="292" type="line" smooth="yes"/>
      <point x="389" y="292"/>
      <point x="453" y="238"/>
      <point x="453" y="154" type="curve" smooth="yes"/>
      <point x="453" y="70"/>
      <point x="387" y="16"/>
      <point x="265" y="16" type="curve" smooth="yes"/>
      <point x="170" y="16"/>
      <point x="95" y="48"/>
      <point x="59" y="89" type="curve"/>
      <point x="47" y="76" type="line"/>
      <point x="85" y="30"/>
      <point x="168" y="-3"/>
    </contour>
  </outline>
</glyph>
<glyph name="fl.ss01" format="2">
  <advance width="567"/>
  <outline>
    <contour>
      <point x="520" y="-103" type="curve" smooth="yes"/>
      <point x="538" y="-103"/>
      <point x="558" y="-99"/>
      <point x="573" y="-93" type="curve"/>
      <point x="570" y="-75" type="line"/>
      <point x="558" y="-80"/>
      <point x="540" y="-84"/>
      <point x="519" y="-84" type="curve" smooth="yes"/>
      <point x="451" y="-84"/>
      <point x="419" y="-44"/>
      <point x="419" y="29" type="curve" smooth="yes"/>
      <point x="419" y="570" type="line" smooth="yes"/>
      <point x="419" y="690"/>
      <point x="363" y="745"/>
      <point x="271" y="745" type="curve" smooth="yes"/>
      <point x="179" y="745"/>
      <point x="123" y="690"/>
      <point x="123" y="570" type="curve" smooth="yes"/>
      <point x="123" y="0" type="line"/>
      <point x="143" y="0" type="line"/>
      <point x="143" y="570" type="line" smooth="yes"/>
      <point x="143" y="678"/>
      <point x="190" y="726"/>
      <point x="271" y="726" type="curve" smooth="yes"/>
      <point x="352" y="726"/>
      <point x="399" y="678"/>
      <point x="399" y="570" type="curve" smooth="yes"/>
      <point x="399" y="24" type="line" smooth="yes"/>
      <point x="399" y="-52"/>
      <point x="440" y="-103"/>
    </contour>
    <contour>
      <point x="23" y="498" type="line"/>
      <point x="318" y="498" type="line"/>
      <point x="318" y="517" type="line"/>
      <point x="23" y="517" type="line"/>
    </contour>
  </outline>
</glyph>
<glyph name="gstroke.sc.ss01" format="2">
  <advance width="673"/>
  <outline>
    <contour>
      <point x="349.914" y="182" type="line"/>
      <point x="642.486" y="182" type="line"/>
      <point x="642.486" y="201" type="line"/>
      <point x="349.914" y="201" type="line"/>
    </contour>
    <component base="g.sc.ss01"/>
  </outline>
</glyph>
<glyph name="h.sc" format="2">
  <advance width="692"/>
  <anchor x="346" y="0" name="bottom"/>
  <anchor x="346" y="431" name="center"/>
  <anchor x="346" y="559" name="top"/>
  <outline>
    <contour>
      <point x="122" y="0" type="line"/>
      <point x="142" y="0" type="line"/>
      <point x="142" y="274" type="line"/>
      <point x="550" y="274" type="line"/>
      <point x="550" y="0" type="line"/>
      <point x="570" y="0" type="line"/>
      <point x="570" y="559" type="line"/>
      <point x="550" y="559" type="line"/>
      <point x="550" y="293" type="line"/>
      <point x="142" y="293" type="line"/>
      <point x="142" y="559" type="line"/>
      <point x="122" y="559" type="line"/>
    </contour>
  </outline>
</glyph>
<glyph name="iacute_j.loclNLD" format="2">
  <advance width="505"/>
  <outline>
    <contour>
      <point x="115" y="0" type="line"/>
      <point x="135" y="0" type="line"/>
      <point x="135" y="517" type="line"/>
      <point x="115" y="517" type="line"/>
    </contour>
    <contour>
      <point x="80" y="607" type="line"/>
      <point x="110" y="607" type="line"/>
      <point x="260" y="717" type="line"/>
      <point x="220" y="717" type="line"/>
    </contour>
    <contour>
      <point x="268" y="-197" type="curve" smooth="yes"/>
      <point x="347" y="-197"/>
      <point x="390" y="-146"/>
      <point x="390" y="-70" type="curve" smooth="yes"/>
      <point x="390" y="517" type="line"/>
      <point x="370" y="517" type="line"/>
      <point x="370" y="-65" type="line" smooth="yes"/>
      <point x="370" y="-138"/>
      <point x="334" y="-178"/>
      <point x="267" y="-178" type="curve" smooth="yes"/>
      <point x="231" y="-178"/>
      <point x="200" y="-167"/>
      <point x="178" y="-146" type="curve"/>
      <point x="164" y="-160" type="line"/>
      <point x="188" y="-185"/>
      <point x="228" y="-197"/>
    </contour>
    <contour>
      <point x="335" y="607" type="line"/>
      <point x="365" y="607" type="line"/>
      <point x="515" y="717" type="line"/>
      <point x="475" y="717" type="line"/>
    </contour>
  </outline>
</glyph>
<glyph name="n.sc.ss01" format="2">
  <advance width="678"/>
  <anchor x="340" y="0" name="bottom"/>
  <anchor x="342" y="559" name="top"/>
  <outline>
    <contour>
      <point x="344" y="562" type="curve" smooth="yes"/>
      <point x="241" y="562"/>
      <point x="169" y="515"/>
      <point x="140" y="421" type="curve"/>
      <point x="142" y="418" type="line"/>
      <point x="142" y="559" type="line"/>
      <point x="122" y="559" type="line"/>
      <point x="122" y="0" type="line"/>
      <point x="142" y="0" type="line"/>
      <point x="142" y="320" type="line" smooth="yes"/>
      <point x="142" y="471"/>
      <point x="215" y="543"/>
      <point x="342" y="543" type="curve" smooth="yes"/>
      <point x="469" y="543"/>
      <point x="542" y="472"/>
      <point x="542" y="336" type="curve" smooth="yes"/>
      <point x="542" y="0" type="line"/>
      <point x="562" y="0" type="line"/>
      <point x="562" y="337" type="line" smooth="yes"/>
      <point x="562" y="483"/>
      <point x="479" y="562"/>
    </contour>
  </outline>
</glyph>
<glyph name="nje-cy.ss01" format="2">
  <advance width="918"/>
  <outline>
    <contour>
      <point x="117" y="0" type="line"/>
      <point x="137" y="0" type="line"/>
      <point x="137" y="276" type="line"/>
      <point x="515" y="276" type="line"/>
      <point x="515" y="294" type="line"/>
      <point x="137" y="294" type="line"/>
      <point x="137" y="517" type="line"/>
      <point x="117" y="517" type="line"/>
    </contour>
    <contour>
      <point x="685" y="16" type="curve" smooth="yes"/>
      <point x="580" y="16"/>
      <point x="525" y="66"/>
      <point x="525" y="156" type="curve" smooth="yes"/>
      <point x="525" y="276" type="line"/>
      <point x="696" y="276" type="line" smooth="yes"/>
      <point x="804" y="276"/>
      <point x="862" y="231"/>
      <point x="862" y="154" type="curve" smooth="yes"/>
      <point x="862" y="70"/>
      <point x="793" y="16"/>
    </contour>
    <contour>
      <point x="683" y="-3" type="curve" smooth="yes"/>
      <point x="804" y="-3"/>
      <point x="882" y="60"/>
      <point x="882" y="154" type="curve" smooth="yes"/>
      <point x="882" y="241"/>
      <point x="816" y="295"/>
      <point x="703" y="295" type="curve" smooth="yes"/>
      <point x="525" y="295" type="line"/>
      <point x="525" y="517" type="line"/>
      <point x="505" y="517" type="line"/>
      <point x="505" y="156" type="line" smooth="yes"/>
      <point x="505" y="54"/>
      <point x="567" y="-3"/>
    </contour>
  </outline>
</glyph>
<glyph name="ogonekcomb.i" format="2">
  <anchor x="301" y="0" name="_ogonek"/>
  <outline>
    <contour>
      <point x="293" y="-213" type="curve" smooth="yes"/>
      <point x="314" y="-213"/>
      <point x="332" y="-204"/>
      <point x="344" y="-189" type="curve"/>
      <point x="333" y="-175" type="line"/>
      <point x="323" y="-187"/>
      <point x="310" y="-195"/>
      <point x="293" y="-195" type="curve" smooth="yes"/>
      <point x="267" y="-195"/>
      <point x="246" y="-174"/>
      <point x="246" y="-134" type="curve" smooth="yes"/>
      <point x="246" y="-101"/>
      <point x="249" y="-59"/>
      <point x="301" y="0" type="curve"/>
      <point x="293" y="17" type="line"/>
      <point x="236" y="-42"/>
      <point x="226" y="-98"/>
      <point x="226" y="-135" type="curve" smooth="yes"/>
      <point x="226" y="-181"/>
      <point x="253" y="-213"/>
    </contour>
  </outline>
</glyph>
<glyph name="periodcentered.loclCAT.case" format="2">
  <advance width="340"/>
  <anchor x="176" y="421" name="_dot"/>
  <outline>
    <contour>
      <point x="176" y="395" type="curve" smooth="yes"/>
      <point x="190" y="395"/>
      <point x="202" y="407"/>
      <point x="202" y="421" type="curve" smooth="yes"/>
      <point x="202" y="435"/>
      <point x="190" y="447"/>
      <point x="176" y="447" type="curve" smooth="yes"/>
      <point x="162" y="447"/>
      <point x="150" y="435"/>
      <point x="150" y="421" type="curve" smooth="yes"/>
      <point x="150" y="407"/>
      <point x="162" y="395"/>
    </contour>
  </outline>
</glyph>
<glyph name="periodcentered.loclCAT" format="2">
  <advance width="72"/>
  <anchor x="86" y="267" name="_dot"/>
  <outline>
    <contour>
      <point x="85" y="240" type="curve" smooth="yes"/>
      <point x="99" y="240"/>
      <point x="111" y="252"/>
      <point x="111" y="266" type="curve" smooth="yes"/>
      <point x="111" y="280"/>
      <point x="99" y="292"/>
      <point x="85" y="292" type="curve" smooth="yes"/>
      <point x="71" y="292"/>
      <point x="59" y="280"/>
      <point x="59" y="266" type="curve" smooth="yes"/>
      <point x="59" y="252"/>
      <point x="71" y="240"/>
    </contour>
  </outline>
</glyph>
<glyph name="prime" format="2">
  <advance width="277"/>
  <outline>
    <contour>
      <point x="120" y="459" type="line"/>
      <point x="136" y="459" type="line"/>
      <point x="157" y="699" type="line"/>
      <point x="137" y="699" type="line"/>
    </contour>
  </outline>
</glyph>
<glyph name="question.sc" format="2">
  <advance width="507"/>
  <outline>
    <contour>
      <point x="225" y="168" type="curve"/>
      <point x="245" y="168" type="line"/>
      <point x="245" y="308"/>
      <point x="418" y="297"/>
      <point x="418" y="439" type="curve" smooth="yes"/>
      <point x="418" y="513"/>
      <point x="348" y="562"/>
      <point x="226" y="562" type="curve" smooth="yes"/>
      <point x="138" y="562"/>
      <point x="69" y="539"/>
      <point x="20" y="496" type="curve"/>
      <point x="34" y="482" type="line"/>
      <point x="81" y="523"/>
      <point x="143" y="543"/>
      <point x="226" y="543" type="curve" smooth="yes"/>
      <point x="339" y="543"/>
      <point x="398" y="502"/>
      <point x="398" y="440" type="curve" smooth="yes"/>
      <point x="398" y="307"/>
      <point x="225" y="319"/>
    </contour>
    <contour>
      <point x="237" y="-3" type="curve" smooth="yes"/>
      <point x="251" y="-3"/>
      <point x="263" y="9"/>
      <point x="263" y="23" type="curve" smooth="yes"/>
      <point x="263" y="37"/>
      <point x="251" y="49"/>
      <point x="237" y="49" type="curve" smooth="yes"/>
      <point x="223" y="49"/>
      <point x="211" y="37"/>
      <point x="211" y="23" type="curve" smooth="yes"/>
      <point x="211" y="9"/>
      <point x="223" y="-3"/>
    </contour>
  </outline>
</glyph>
<glyph name="quotesinglbase.sc" format="2">
  <advance width="182"/>
  <outline>
    <contour>
      <point x="67" y="-120" type="line"/>
      <point x="85" y="-120" type="line"/>
      <point x="113" y="-6" type="line"/>
      <point x="116" y="5"/>
      <point x="117" y="11"/>
      <point x="117" y="23" type="curve" smooth="yes"/>
      <point x="117" y="37"/>
      <point x="107" y="49"/>
      <point x="91" y="49" type="curve" smooth="yes"/>
      <point x="76" y="49"/>
      <point x="65" y="37"/>
      <point x="65" y="23" type="curve" smooth="yes"/>
      <point x="65" y="9"/>
      <point x="77" y="-3"/>
      <point x="93" y="-3" type="curve"/>
      <point x="93" y="8" type="line"/>
    </contour>
  </outline>
</glyph>
<glyph name="quotesingle.sc" format="2">
  <advance width="184"/>
  <outline>
    <contour>
      <point x="83" y="349" type="line"/>
      <point x="101" y="349" type="line"/>
      <point x="103" y="559" type="line"/>
      <point x="81" y="559" type="line"/>
    </contour>
  </outline>
</glyph>
<glyph name="s.sc" format="2">
  <advance width="507"/>
  <anchor x="267" y="0" name="bottom"/>
  <anchor x="267" y="559" name="top"/>
  <outline>
    <contour>
      <point x="451" y="63"/>
      <point x="451" y="139" type="curve" smooth="yes"/>
      <point x="451" y="341"/>
      <point x="92" y="235"/>
      <point x="92" y="419" type="curve" smooth="yes"/>
      <point x="92" y="487"/>
      <point x="146" y="543"/>
      <point x="264" y="543" type="curve" smooth="yes"/>
      <point x="317" y="543"/>
      <point x="373" y="529"/>
      <point x="418" y="494" type="curve"/>
      <point x="428" y="511" type="line"/>
      <point x="387" y="544"/>
      <point x="326" y="562"/>
      <point x="263" y="562" type="curve" smooth="yes"/>
      <point x="129" y="562"/>
      <point x="72" y="494"/>
      <point x="72" y="420" type="curve" smooth="yes"/>
      <point x="72" y="214"/>
      <point x="431" y="321"/>
      <point x="431" y="138" type="curve" smooth="yes"/>
      <point x="431" y="71"/>
      <point x="377" y="16"/>
      <point x="255" y="16" type="curve" smooth="yes"/>
      <point x="177" y="16"/>
      <point x="105" y="48"/>
      <point x="69" y="90" type="curve"/>
      <point x="56" y="76" type="line"/>
      <point x="95" y="30"/>
      <point x="173" y="-3"/>
      <point x="256" y="-3" type="curve" smooth="yes"/>
      <point x="391" y="-3"/>
    </contour>
  </outline>
</glyph>
<glyph name="strokelongcomb.sc" format="2">
  <anchor x="325" y="352" name="_center"/>
  <outline>
    <contour>
      <point x="11" y="344" type="line"/>
      <point x="640" y="344" type="line"/>
      <point x="640" y="362" type="line"/>
      <point x="11" y="362" type="line"/>
    </contour>
  </outline>
</glyph>
<glyph name="strokeshortcomb.sc" format="2">
  <anchor x="243" y="285" name="_center"/>
  <outline>
    <contour>
      <point x="96" y="275" type="line"/>
      <point x="389" y="275" type="line"/>
      <point x="389" y="294" type="line"/>
      <point x="96" y="294" type="line"/>
    </contour>
  </outline>
</glyph>
<glyph name="te-cy.loclSRB" format="2">
  <advance width="1060"/>
  <outline>
    <contour>
      <point x="253" y="652" type="line"/>
      <point x="797" y="652" type="line"/>
      <point x="797" y="672" type="line"/>
      <point x="253" y="672" type="line"/>
    </contour>
    <component base="sha-cy.loclBGR"/>
  </outline>
</glyph>
<glyph name="three.tf" format="2">
  <advance width="700"/>
  <outline>
    <contour>
      <point x="332" y="-3" type="curve" smooth="yes"/>
      <point x="490" y="-3"/>
      <point x="573" y="76"/>
      <point x="573" y="192" type="curve" smooth="yes"/>
      <point x="573" y="308"/>
      <point x="490" y="387"/>
      <point x="328" y="387" type="curve" smooth="yes"/>
      <point x="303" y="387" type="line"/>
      <point x="305" y="380" type="line"/>
      <point x="547" y="685" type="line"/>
      <point x="547" y="700" type="line"/>
      <point x="87" y="700" type="line"/>
      <point x="87" y="681" type="line"/>
      <point x="527" y="681" type="line"/>
      <point x="525" y="688" type="line"/>
      <point x="283" y="383" type="line"/>
      <point x="283" y="368" type="line"/>
      <point x="329" y="368" type="line" smooth="yes"/>
      <point x="482" y="368"/>
      <point x="553" y="299"/>
      <point x="553" y="192" type="curve" smooth="yes"/>
      <point x="553" y="85"/>
      <point x="482" y="16"/>
      <point x="332" y="16" type="curve" smooth="yes"/>
      <point x="219" y="16"/>
      <point x="133" y="57"/>
      <point x="94" y="109" type="curve"/>
      <point x="81" y="96" type="line"/>
      <point x="123" y="38"/>
      <point x="217" y="-3"/>
    </contour>
  </outline>
</glyph>
<glyph name="udieresis.sc.alt.BRACKET.133" format="2">
  <advance width="672"/>
  <outline>
    <contour>
      <point x="336" y="-3" type="curve" smooth="yes"/>
      <point x="472" y="-3"/>
      <point x="556" y="76"/>
      <point x="556" y="235" type="curve" smooth="yes"/>
      <point x="556" y="559" type="line"/>
      <point x="536" y="559" type="line"/>
      <point x="536" y="236" type="line" smooth="yes"/>
      <point x="536" y="87"/>
      <point x="463" y="16"/>
      <point x="336" y="16" type="curve" smooth="yes"/>
      <point x="209" y="16"/>
      <point x="136" y="87"/>
      <point x="136" y="236" type="curve" smooth="yes"/>
      <point x="136" y="559" type="line"/>
      <point x="116" y="559" type="line"/>
      <point x="116" y="235" type="line" smooth="yes"/>
      <point x="116" y="76"/>
      <point x="200" y="-3"/>
    </contour>
    <contour>
      <point x="418" y="510" type="curve" smooth="yes"/>
      <point x="432" y="510"/>
      <point x="444" y="522"/>
      <point x="444" y="536" type="curve" smooth="yes"/>
      <point x="444" y="550"/>
      <point x="432" y="562"/>
      <point x="418" y="562" type="curve" smooth="yes"/>
      <point x="404" y="562"/>
      <point x="392" y="550"/>
      <point x="392" y="536" type="curve" smooth="yes"/>
      <point x="392" y="522"/>
      <point x="404" y="510"/>
    </contour>
    <contour>
      <point x="254" y="510" type="curve" smooth="yes"/>
      <point x="268" y="510"/>
      <point x="280" y="522"/>
      <point x="280" y="536" type="curve" smooth="yes"/>
      <point x="280" y="550"/>
      <point x="268" y="562"/>
      <point x="254" y="562" type="curve" smooth="yes"/>
      <point x="240" y="562"/>
      <point x="228" y="550"/>
      <point x="228" y="536" type="curve" smooth="yes"/>
      <point x="228" y="522"/>
      <point x="240" y="510"/>
    </contour>
  </outline>
</glyph>
<glyph name="uogonek.sc" format="2">
  <advance width="672"/>
  <outline>
    <contour>
      <point x="536" y="559" type="line"/>
      <point x="536" y="236" type="line" smooth="yes"/>
      <point x="536" y="87"/>
      <point x="463" y="16"/>
      <point x="336" y="16" type="curve" smooth="yes"/>
      <point x="209" y="16"/>
      <point x="136" y="87"/>
      <point x="136" y="236" type="curve" smooth="yes"/>
      <point x="136" y="559" type="line"/>
      <point x="116" y="559" type="line"/>
      <point x="116" y="235" type="line" smooth="yes"/>
      <point x="116" y="76"/>
      <point x="200" y="-3"/>
      <point x="336" y="-3" type="curve" smooth="yes"/>
      <point x="349" y="-3"/>
      <point x="364" y="-2"/>
      <point x="384" y="1" type="curve"/>
      <point x="404" y="16" type="line"/>
      <point x="289" y="-35"/>
      <point x="267" y="-89"/>
      <point x="267" y="-130" type="curve" smooth="yes"/>
      <point x="267" y="-182"/>
      <point x="306" y="-213"/>
      <point x="358" y="-213" type="curve" smooth="yes"/>
      <point x="386" y="-213"/>
      <point x="410" y="-205"/>
      <point x="432" y="-186" type="curve"/>
      <point x="421" y="-171" type="line"/>
      <point x="405" y="-186"/>
      <point x="382" y="-194"/>
      <point x="359" y="-194" type="curve" smooth="yes"/>
      <point x="318" y="-194"/>
      <point x="287" y="-173"/>
      <point x="287" y="-130" type="curve" smooth="yes"/>
      <point x="287" y="-95"/>
      <point x="303" y="-48"/>
      <point x="441" y="17" type="curve" smooth="yes"/>
      <point x="524" y="56"/>
      <point x="556" y="136"/>
      <point x="556" y="235" type="curve" smooth="yes"/>
      <point x="556" y="559" type="line"/>
    </contour>
  </outline>
</glyph>
<glyph name="verticalbar-cy.case" format="2">
  <advance width="268"/>
  <anchor x="134" y="0" name="_bottom"/>
  <outline>
    <contour>
      <point x="144" y="10" type="line"/>
      <point x="124" y="10" type="line"/>
      <point x="124" y="-165" type="line"/>
      <point x="144" y="-165" type="line"/>
    </contour>
  </outline>
</glyph>
<glyph name="z.sc" format="2">
  <advance width="528"/>
  <anchor x="279" y="0" name="bottom"/>
  <anchor x="271" y="559" name="top"/>
  <outline>
    <contour>
      <point x="48" y="0" type="line"/>
      <point x="495" y="0" type="line"/>
      <point x="495" y="19" type="line"/>
      <point x="69" y="19" type="line"/>
      <point x="71" y="12" type="line"/>
      <point x="487" y="544" type="line"/>
      <point x="487" y="559" type="line"/>
      <point x="52" y="559" type="line"/>
      <point x="52" y="540" type="line"/>
      <point x="465" y="540" type="line"/>
      <point x="464" y="547" type="line"/>
      <point x="48" y="15" type="line"/>
    </contour>
  </outline>
</glyph>
<glyph name="zero.tosf" format="2">
  <advance width="700"/>
  <outline>
    <contour>
      <point x="350" y="-3" type="curve" smooth="yes"/>
      <point x="508" y="-3"/>
      <point x="620" y="122"/>
      <point x="620" y="300" type="curve" smooth="yes"/>
      <point x="620" y="478"/>
      <point x="508" y="603"/>
      <point x="350" y="603" type="curve" smooth="yes"/>
      <point x="192" y="603"/>
      <point x="80" y="478"/>
      <point x="80" y="300" type="curve" smooth="yes"/>
      <point x="80" y="122"/>
      <point x="192" y="-3"/>
    </contour>
    <contour>
      <point x="350" y="16" type="curve" smooth="yes"/>
      <point x="203" y="16"/>
      <point x="100" y="132"/>
      <point x="100" y="300" type="curve" smooth="yes"/>
      <point x="100" y="468"/>
      <point x="203" y="584"/>
      <point x="350" y="584" type="curve" smooth="yes"/>
      <point x="497" y="584"/>
      <point x="600" y="468"/>
      <point x="600" y="300" type="curve" smooth="yes"/>
      <point x="600" y="132"/>
      <point x="497" y="16"/>
    </contour>
  </outline>
</glyph>
